<?xml version="1.0" encoding="UTF-8" standalone="no"?>
<svg width="875px" height="698px" viewBox="0 0 875 698" version="1.1" xmlns="http://www.w3.org/2000/svg" xmlns:xlink="http://www.w3.org/1999/xlink" xmlns:sketch="http://www.bohemiancoding.com/sketch/ns">
    <!-- Generator: Sketch 3.1 (8751) - http://www.bohemiancoding.com/sketch -->
    <title>emblem</title>
    <desc>Created with Sketch.</desc>
    <defs></defs>
    <g id="Page-1" stroke="none" stroke-width="1" fill="none" fill-rule="evenodd" sketch:type="MSPage">
        <g id="emblem" sketch:type="MSArtboardGroup" fill="#961C00">
            <path d="M61.3476562,320.348145 L100.328613,320.348145 L100.699219,332.072754 L99.0483398,332.072754 C98.2397421,328.389142 97.2121644,325.991461 95.9655762,324.879639 C94.7189879,323.767817 92.0966997,323.211914 88.0986328,323.211914 L84.2578125,323.211914 L84.2578125,358.520508 C84.2578125,361.193373 84.6733357,362.84985 85.5043945,363.48999 C86.3354534,364.13013 88.1547711,364.551269 90.9624023,364.753418 L90.9624023,366 L70.8486328,366 L70.8486328,364.753418 C73.7685693,364.528807 75.587887,364.045902 76.3066406,363.304688 C77.0253942,362.563473 77.3847656,360.699234 77.3847656,357.711914 L77.3847656,323.211914 L73.5439453,323.211914 C69.7255668,323.211914 67.1257393,323.762202 65.7443848,324.862793 C64.3630302,325.963384 63.3242222,328.366681 62.6279297,332.072754 L60.9433594,332.072754 L61.3476562,320.348145 Z M103.130859,364.897949 C105.513684,364.63981 107.002927,364.198001 107.598633,363.57251 C108.194339,362.947018 108.492188,361.313815 108.492188,358.672852 L108.492188,332.253418 C108.492188,330.069162 108.15959,328.649417 107.494385,327.994141 C106.82918,327.338864 105.374686,326.931804 103.130859,326.772949 L103.130859,325.641113 L120.078613,325.641113 L120.078613,326.772949 C117.834787,326.931804 116.375329,327.338864 115.700195,327.994141 C115.025062,328.649417 114.6875,330.069162 114.6875,332.253418 L114.6875,344.137695 L133.184082,344.137695 L133.184082,332.253418 C133.184082,330.069162 132.856449,328.649417 132.201172,327.994141 C131.545895,327.338864 130.086437,326.931804 127.822754,326.772949 L127.822754,325.641113 L144.770508,325.641113 L144.770508,326.772949 C142.526681,326.931804 141.072188,327.338864 140.406982,327.994141 C139.741777,328.649417 139.40918,330.069162 139.40918,332.253418 L139.40918,359.387695 C139.40918,361.611665 139.741777,363.036374 140.406982,363.661865 C141.072188,364.287357 142.526681,364.699381 144.770508,364.897949 L144.770508,366 L127.822754,366 L127.822754,364.897949 C130.225435,364.659667 131.719642,364.222822 132.30542,363.587402 C132.891198,362.951982 133.184082,361.313815 133.184082,358.672852 L133.184082,346.818359 L114.6875,346.818359 L114.6875,359.387695 C114.6875,361.611665 115.025062,363.041338 115.700195,363.676758 C116.375329,364.312178 117.834787,364.719237 120.078613,364.897949 L120.078613,366 L103.130859,366 L103.130859,364.897949 Z M158.709961,360.057861 C161.231783,363.125748 164.329409,364.659668 168.00293,364.659668 C171.597023,364.659668 174.669828,363.165461 177.221436,360.177002 C179.773043,357.188543 181.048828,352.408073 181.048828,345.835449 C181.048828,339.183398 179.758151,334.378107 177.176758,331.419434 C174.595365,328.46076 171.537453,326.981445 168.00293,326.981445 C164.349266,326.981445 161.256604,328.515366 158.724854,331.583252 C156.193103,334.651138 154.927246,339.401823 154.927246,345.835449 C154.927246,352.249218 156.188138,356.989975 158.709961,360.057861 L158.709961,360.057861 Z M154.152832,330.168457 C157.90578,326.574364 162.522434,324.777344 168.00293,324.777344 C173.503283,324.777344 178.129864,326.584292 181.882812,330.198242 C185.953471,334.110046 187.98877,339.322396 187.98877,345.835449 C187.98877,352.447787 185.883973,357.709779 181.674316,361.621582 C177.901511,365.116391 173.344428,366.86377 168.00293,366.86377 C162.284151,366.86377 157.53843,364.927754 153.765625,361.055664 C149.933249,357.104147 148.01709,352.030793 148.01709,345.835449 C148.01709,339.322396 150.062317,334.100117 154.152832,330.168457 L154.152832,330.168457 Z M190.9375,364.897949 C193.459323,364.63981 195.077633,364.068933 195.79248,363.185303 C196.507328,362.301672 196.864746,360.251481 196.864746,357.034668 L196.864746,332.253418 C196.864746,330.049305 196.517256,328.614668 195.822266,327.949463 C195.127275,327.284258 193.548678,326.89209 191.086426,326.772949 L191.086426,325.641113 L203.149414,325.641113 L217.267578,356.40918 L230.760254,325.641113 L242.912598,325.641113 L242.912598,326.772949 C240.648914,326.931804 239.189456,327.343828 238.53418,328.009033 C237.878903,328.674238 237.55127,330.089019 237.55127,332.253418 L237.55127,359.387695 C237.55127,361.611665 237.878903,363.036374 238.53418,363.661865 C239.189456,364.287357 240.648914,364.699381 242.912598,364.897949 L242.912598,366 L225.815918,366 L225.815918,364.897949 C228.27817,364.699381 229.81209,364.257572 230.417725,363.57251 C231.023359,362.887448 231.326172,361.254245 231.326172,358.672852 L231.326172,331.270508 L215.71875,366 L214.884766,366 L199.54541,332.700195 L199.54541,357.034668 C199.54541,360.370622 200.031896,362.544917 201.004883,363.557617 C201.640303,364.212894 203.060048,364.659667 205.26416,364.897949 L205.26416,366 L190.9375,366 L190.9375,364.897949 Z M271.714844,350.333008 L264.655762,333.53418 L257.686035,350.333008 L271.714844,350.333008 Z M245.384766,366 L245.384766,364.897949 C246.953458,364.719237 248.12996,364.12354 248.914307,363.11084 C249.698653,362.098139 251.043936,359.348004 252.950195,354.860352 L265.668457,324.92627 L266.859863,324.92627 L282.050293,359.506836 C283.062993,361.810233 283.872149,363.234942 284.477783,363.781006 C285.083418,364.32707 286.101067,364.699381 287.530762,364.897949 L287.530762,366 L272.012695,366 L272.012695,364.897949 C273.799814,364.739094 274.951495,364.545493 275.467773,364.317139 C275.984052,364.088785 276.242188,363.527836 276.242188,362.634277 C276.242188,362.336424 276.142905,361.810225 275.944336,361.055664 C275.745767,360.301103 275.467775,359.50684 275.110352,358.672852 L272.578613,352.805176 L256.61377,352.805176 C255.02522,356.796407 254.077069,359.233801 253.769287,360.117432 C253.461506,361.001062 253.307617,361.701007 253.307617,362.217285 C253.307617,363.249842 253.724605,363.964679 254.558594,364.361816 C255.074872,364.600099 256.047844,364.778808 257.477539,364.897949 L257.477539,366 L245.384766,366 Z M292.475098,353.728516 C293.507655,356.468764 294.718906,358.652987 296.108887,360.28125 C298.531425,363.120782 301.539696,364.540527 305.133789,364.540527 C307.079762,364.540527 308.762607,363.924974 310.182373,362.693848 C311.602139,361.462722 312.312012,359.745128 312.312012,357.541016 C312.312012,355.555329 311.597175,353.827807 310.16748,352.358398 C309.234208,351.425126 307.268407,350.025237 304.27002,348.158691 L299.057617,344.912109 C297.488924,343.919266 296.23796,342.916509 295.304688,341.903809 C293.57714,339.977692 292.713379,337.853039 292.713379,335.529785 C292.713379,332.45197 293.735992,329.890472 295.78125,327.845215 C297.826508,325.799957 300.53693,324.777344 303.912598,324.777344 C305.302579,324.777344 306.975495,325.11987 308.931396,325.804932 C310.887298,326.489994 312.00423,326.83252 312.282227,326.83252 C313.036788,326.83252 313.558023,326.65381 313.845947,326.296387 C314.133872,325.938963 314.357258,325.43262 314.516113,324.777344 L315.76709,324.777344 L317.107422,337.763672 L315.647949,337.763672 C314.655106,333.851868 313.061616,331.12159 310.867432,329.572754 C308.673247,328.023918 306.503917,327.249512 304.359375,327.249512 C302.691398,327.249512 301.236904,327.740962 299.99585,328.723877 C298.754795,329.706792 298.134277,331.071931 298.134277,332.819336 C298.134277,334.388029 298.610835,335.728347 299.563965,336.840332 C300.517095,337.972174 301.996409,339.15364 304.001953,340.384766 L309.363281,343.690918 C312.719092,345.756032 315.082024,347.652335 316.452148,349.379883 C317.802416,351.127287 318.477539,353.192371 318.477539,355.575195 C318.477539,358.772151 317.271252,361.44286 314.858643,363.587402 C312.446033,365.731944 309.3633,366.804199 305.610352,366.804199 C303.723949,366.804199 301.753184,366.446781 299.697998,365.731934 C297.642812,365.017086 296.46631,364.659668 296.168457,364.659668 C295.45361,364.659668 294.972088,364.87809 294.723877,365.314941 C294.475666,365.751793 294.311849,366.218422 294.232422,366.714844 L292.89209,366.714844 L291.075195,353.728516 L292.475098,353.728516 Z M449.111816,364.753418 C451.807142,364.461424 453.491696,363.961673 454.165527,363.25415 C454.839359,362.546627 455.17627,360.699234 455.17627,357.711914 L455.17627,327.827637 C455.17627,325.356921 454.800053,323.75098 454.047607,323.009766 C453.295162,322.268551 451.649915,321.808106 449.111816,321.628418 L449.111816,320.348145 L468.282227,320.348145 L468.282227,321.628418 C465.744128,321.808106 464.093266,322.268551 463.32959,323.009766 C462.565914,323.75098 462.184082,325.356921 462.184082,327.827637 L462.184082,341.270508 L483.106445,341.270508 L483.106445,327.827637 C483.106445,325.356921 482.735844,323.75098 481.994629,323.009766 C481.253414,322.268551 479.602552,321.808106 477.041992,321.628418 L477.041992,320.348145 L496.212402,320.348145 L496.212402,321.628418 C493.674304,321.808106 492.029056,322.268551 491.276611,323.009766 C490.524166,323.75098 490.147949,325.356921 490.147949,327.827637 L490.147949,358.520508 C490.147949,361.036145 490.524166,362.647702 491.276611,363.355225 C492.029056,364.062748 493.674304,364.528807 496.212402,364.753418 L496.212402,366 L477.041992,366 L477.041992,364.753418 C479.759779,364.483885 481.449948,363.98975 482.112549,363.270996 C482.77515,362.552243 483.106445,360.699234 483.106445,357.711914 L483.106445,344.302734 L462.184082,344.302734 L462.184082,358.520508 C462.184082,361.036145 462.565914,362.653317 463.32959,363.37207 C464.093266,364.090824 465.744128,364.551269 468.282227,364.753418 L468.282227,366 L449.111816,366 L449.111816,364.753418 Z M524.606934,350.589844 L517.663574,334.066406 L510.808105,350.589844 L524.606934,350.589844 Z M498.708496,366 L498.708496,364.916016 C500.251473,364.740233 501.408688,364.154302 502.180176,363.158203 C502.951664,362.162104 504.274893,359.457053 506.149902,355.042969 L518.659668,325.599609 L519.831543,325.599609 L534.772949,359.613281 C535.769048,361.878918 536.564938,363.280271 537.160645,363.817383 C537.756351,364.354495 538.757317,364.720702 540.163574,364.916016 L540.163574,366 L524.899902,366 L524.899902,364.916016 C526.657724,364.759765 527.790525,364.569337 528.29834,364.344727 C528.806155,364.120116 529.060059,363.568364 529.060059,362.689453 C529.060059,362.396483 528.962403,361.87891 528.76709,361.136719 C528.571776,360.394528 528.298342,359.613285 527.946777,358.792969 L525.456543,353.021484 L509.753418,353.021484 C508.19091,356.947285 507.258302,359.344722 506.955566,360.213867 C506.652831,361.083012 506.501465,361.771482 506.501465,362.279297 C506.501465,363.294927 506.911617,363.998045 507.731934,364.388672 C508.239749,364.623048 509.19677,364.798828 510.603027,364.916016 L510.603027,366 L498.708496,366 Z M562.341309,344.115234 C565.524918,342.806634 567.116699,340.345721 567.116699,336.732422 C567.116699,333.255842 565.690932,330.882819 562.839355,329.613281 C561.31591,328.929684 559.294446,328.587891 556.774902,328.587891 C555.075675,328.587891 554.035646,328.70996 553.654785,328.954102 C553.273924,329.198243 553.083496,329.769527 553.083496,330.667969 L553.083496,345.462891 C557.399924,345.30664 560.485831,344.857426 562.341309,344.115234 L562.341309,344.115234 Z M541.833496,364.916016 C544.138195,364.701171 545.573728,364.251957 546.140137,363.568359 C546.706546,362.884762 546.989746,361.292981 546.989746,358.792969 L546.989746,332.806641 C546.989746,330.697255 546.672366,329.315433 546.037598,328.661133 C545.402829,328.006833 544.001476,327.591798 541.833496,327.416016 L541.833496,326.302734 L558.444824,326.302734 C561.901873,326.302734 564.782703,326.742183 567.087402,327.621094 C571.462424,329.281258 573.649902,332.337868 573.649902,336.791016 C573.649902,339.779312 572.678232,342.074211 570.734863,343.675781 C568.791494,345.277352 566.149919,346.332029 562.810059,346.839844 L575.17334,362.044922 C575.935062,362.982427 576.696774,363.666013 577.458496,364.095703 C578.220219,364.525393 579.196771,364.798828 580.388184,364.916016 L580.388184,366 L570.720215,366 L556.42334,347.542969 L553.083496,347.689453 L553.083496,359.496094 C553.083496,361.722667 553.420407,363.133786 554.094238,363.729492 C554.76807,364.325198 556.237782,364.720702 558.503418,364.916016 L558.503418,366 L541.833496,366 L541.833496,364.916016 Z M598.112793,326.302734 L598.112793,327.416016 C596.608879,327.435547 595.583499,327.533202 595.036621,327.708984 C594.079585,328.021486 593.601074,328.656245 593.601074,329.613281 C593.601074,330.101565 593.771971,330.785152 594.11377,331.664062 C594.455568,332.542973 595.09521,334.017568 596.032715,336.087891 L605.407715,356.976562 L613.933105,334.359375 C614.304201,333.363276 614.587401,332.523441 614.782715,331.839844 C614.978028,331.156247 615.075684,330.599612 615.075684,330.169922 C615.075684,329.017572 614.577642,328.23633 613.581543,327.826172 C612.995603,327.591796 612.028815,327.455078 610.681152,327.416016 L610.681152,326.302734 L622.956543,326.302734 L622.956543,327.328125 C621.687005,327.503907 620.749515,327.845701 620.144043,328.353516 C619.22607,329.115238 618.317876,330.648426 617.419434,332.953125 L604.147949,366.703125 L603.239746,366.703125 L588.444824,333.714844 C587.194818,330.921861 586.193851,329.183597 585.441895,328.5 C584.689938,327.816403 583.591316,327.425782 582.145996,327.328125 L582.145996,326.302734 L598.112793,326.302734 Z M625.476074,364.916016 C627.917493,364.740233 629.499508,364.374026 630.222168,363.817383 C630.944828,363.260739 631.306152,361.820324 631.306152,359.496094 L631.306152,332.806641 C631.306152,330.599598 630.944828,329.178714 630.222168,328.543945 C629.499508,327.909177 627.917493,327.533204 625.476074,327.416016 L625.476074,326.302734 L643.22998,326.302734 L643.22998,327.416016 C640.788562,327.533204 639.206547,327.909177 638.483887,328.543945 C637.761227,329.178714 637.399902,330.599598 637.399902,332.806641 L637.399902,359.496094 C637.399902,361.820324 637.761227,363.260739 638.483887,363.817383 C639.206547,364.374026 640.788562,364.740233 643.22998,364.916016 L643.22998,366 L625.476074,366 L625.476074,364.916016 Z M645.163574,364.916016 C647.644055,364.662108 649.235836,364.10059 649.938965,363.231445 C650.642093,362.3623 650.993652,360.345719 650.993652,357.181641 L650.993652,330.726562 L650.17334,329.759766 C649.294429,328.724604 648.547366,328.084962 647.932129,327.84082 C647.316891,327.596678 646.394049,327.455078 645.163574,327.416016 L645.163574,326.302734 L655.446777,326.302734 L678.562012,355.189453 L678.562012,335.121094 C678.562012,331.820296 678.073735,329.67188 677.097168,328.675781 C676.452633,328.031247 675.026867,327.611329 672.819824,327.416016 L672.819824,326.302734 L686.911621,326.302734 L686.911621,327.416016 C684.626453,327.650392 683.103031,328.207027 682.341309,329.085938 C681.579586,329.964848 681.19873,331.976547 681.19873,335.121094 L681.19873,366.703125 L680.17334,366.703125 L653.630371,333.802734 L653.630371,357.181641 C653.630371,360.462907 654.108882,362.601558 655.065918,363.597656 C655.690921,364.242191 657.087392,364.681639 659.255371,364.916016 L659.255371,366 L645.163574,366 L645.163574,364.916016 Z M700.871582,363.304688 C701.3501,363.617189 702.341301,363.773438 703.845215,363.773438 C708.532738,363.773438 712.390122,362.845712 715.41748,360.990234 C720.065941,358.138658 722.390137,353.265659 722.390137,346.371094 C722.390137,340.218719 720.476093,335.589859 716.647949,332.484375 C713.366683,329.828112 709.021023,328.5 703.61084,328.5 C702.263177,328.5 701.3501,328.646483 700.871582,328.939453 C700.393064,329.232423 700.153809,329.876948 700.153809,330.873047 L700.153809,361.371094 C700.153809,362.347661 700.393064,362.992186 700.871582,363.304688 L700.871582,363.304688 Z M688.786621,364.916016 C690.974132,364.681639 692.399899,364.286136 693.063965,363.729492 C693.728031,363.172849 694.060059,361.76173 694.060059,359.496094 L694.060059,332.806641 C694.060059,330.61913 693.737796,329.212894 693.093262,328.587891 C692.448727,327.962888 691.013195,327.572266 688.786621,327.416016 L688.786621,326.302734 L704.958496,326.302734 C710.407742,326.302734 715.017071,327.201163 718.786621,328.998047 C725.58353,332.220719 728.981934,337.98238 728.981934,346.283203 C728.981934,349.271499 728.371588,352.113268 727.150879,354.808594 C725.93017,357.50392 724.089368,359.779288 721.628418,361.634766 C720.06591,362.806646 718.444833,363.695309 716.765137,364.300781 C713.698715,365.433599 709.929222,366 705.456543,366 L688.786621,366 L688.786621,364.916016 Z M731.82373,364.916016 C734.030773,364.681639 735.461423,364.286136 736.115723,363.729492 C736.770023,363.172849 737.097168,361.76173 737.097168,359.496094 L737.097168,332.806641 C737.097168,330.677724 736.774906,329.286136 736.130371,328.631836 C735.485837,327.977536 734.050304,327.572266 731.82373,327.416016 L731.82373,326.302734 L763.69873,326.302734 L763.903809,334.916016 L762.380371,334.916016 C761.872556,332.259752 761.110845,330.54102 760.095215,329.759766 C759.079585,328.978512 756.813982,328.587891 753.29834,328.587891 L745.153809,328.587891 C744.274898,328.587891 743.732911,328.729491 743.527832,329.012695 C743.322753,329.2959 743.220215,329.828121 743.220215,330.609375 L743.220215,343.998047 L752.44873,343.998047 C755.007337,343.998047 756.63818,343.617191 757.341309,342.855469 C758.044437,342.093746 758.610838,340.550793 759.040527,338.226562 L760.446777,338.226562 L760.446777,352.113281 L759.040527,352.113281 C758.591306,349.789051 758.01514,348.25098 757.312012,347.499023 C756.608883,346.747067 754.987806,346.371094 752.44873,346.371094 L743.220215,346.371094 L743.220215,361.224609 C743.220215,362.416022 743.596188,363.11914 744.348145,363.333984 C745.100101,363.548829 747.351055,363.65625 751.101074,363.65625 C755.163595,363.65625 758.161611,363.211919 760.095215,362.323242 C762.028818,361.434566 763.767082,359.281267 765.310059,355.863281 L766.97998,355.863281 L764.255371,366 L731.82373,366 L731.82373,364.916016 Z M788.981934,344.115234 C792.165543,342.806634 793.757324,340.345721 793.757324,336.732422 C793.757324,333.255842 792.331557,330.882819 789.47998,329.613281 C787.956535,328.929684 785.935071,328.587891 783.415527,328.587891 C781.7163,328.587891 780.676271,328.70996 780.29541,328.954102 C779.914549,329.198243 779.724121,329.769527 779.724121,330.667969 L779.724121,345.462891 C784.040549,345.30664 787.126456,344.857426 788.981934,344.115234 L788.981934,344.115234 Z M768.474121,364.916016 C770.77882,364.701171 772.214353,364.251957 772.780762,363.568359 C773.347171,362.884762 773.630371,361.292981 773.630371,358.792969 L773.630371,332.806641 C773.630371,330.697255 773.312991,329.315433 772.678223,328.661133 C772.043454,328.006833 770.642101,327.591798 768.474121,327.416016 L768.474121,326.302734 L785.085449,326.302734 C788.542498,326.302734 791.423328,326.742183 793.728027,327.621094 C798.103049,329.281258 800.290527,332.337868 800.290527,336.791016 C800.290527,339.779312 799.318857,342.074211 797.375488,343.675781 C795.432119,345.277352 792.790544,346.332029 789.450684,346.839844 L801.813965,362.044922 C802.575687,362.982427 803.337399,363.666013 804.099121,364.095703 C804.860844,364.525393 805.837396,364.798828 807.028809,364.916016 L807.028809,366 L797.36084,366 L783.063965,347.542969 L779.724121,347.689453 L779.724121,359.496094 C779.724121,361.722667 780.061032,363.133786 780.734863,363.729492 C781.408695,364.325198 782.878407,364.720702 785.144043,364.916016 L785.144043,366 L768.474121,366 L768.474121,364.916016 Z M384.624512,330.377441 C387.056165,328.053862 388.271973,325.487156 388.271973,322.677246 C388.271973,320.569814 387.657314,318.867682 386.427979,317.570801 C385.198643,316.273919 383.638356,315.625488 381.74707,315.625488 C379.693675,315.625488 378.10637,316.287428 376.985107,317.611328 C375.863845,318.935228 375.303223,320.691395 375.303223,322.879883 C375.303223,324.58204 375.607175,326.426015 376.215088,328.411865 C376.823001,330.397715 377.613276,332.444325 378.585938,334.551758 C381.260756,333.065748 383.273594,331.674323 384.624512,330.377441 L384.624512,330.377441 Z M379.31543,364.460938 C381.476899,363.59635 383.543773,362.231943 385.516113,360.367676 C382.976387,357.125472 380.997322,354.396658 379.578857,352.181152 C378.160393,349.965646 375.938166,346.102078 372.912109,340.590332 C370.129218,342.238452 367.994799,343.886548 366.508789,345.534668 C364.239246,348.074394 363.104492,351.019352 363.104492,354.369629 C363.104492,357.449722 364.104157,360.117746 366.103516,362.373779 C368.102875,364.629813 370.669581,365.757812 373.803711,365.757812 C375.316739,365.757812 377.153961,365.325525 379.31543,364.460938 L379.31543,364.460938 Z M371.655762,337.712891 C371.304523,336.983395 370.899254,335.98373 370.439941,334.713867 C369.980629,333.444004 369.656414,332.417322 369.467285,331.633789 C369.251138,330.769201 369.075522,329.897872 368.94043,329.019775 C368.805338,328.141679 368.737793,327.283858 368.737793,326.446289 C368.737793,322.555645 369.926583,319.326999 372.304199,316.760254 C374.681815,314.193509 377.694318,312.910156 381.341797,312.910156 C384.665056,312.910156 387.39387,313.815258 389.52832,315.625488 C391.662771,317.435719 392.72998,319.867335 392.72998,322.92041 C392.72998,326.486834 391.365574,329.404774 388.636719,331.674316 C385.907864,333.943859 382.976415,335.767571 379.842285,337.145508 C382.219901,341.468446 383.969314,344.521475 385.090576,346.304688 C386.211838,348.0879 388.10985,350.722151 390.784668,354.20752 C393.648615,350.695132 395.634435,347.696139 396.742188,345.210449 C397.84994,342.72476 398.403809,340.73894 398.403809,339.25293 C398.403809,337.739901 397.84994,336.69971 396.742188,336.132324 C396.03971,335.781085 394.823902,335.537924 393.094727,335.402832 L393.094727,333.660156 L410.967285,333.660156 L410.967285,335.402832 C409.157055,335.618979 407.806157,335.943194 406.914551,336.375488 C405.455559,337.104984 404.212733,338.415355 403.186035,340.306641 L401.078613,344.156738 C399.565585,346.912611 398.302495,349.020012 397.289307,350.479004 C396.276118,351.937996 394.756358,353.950834 392.72998,356.517578 C393.810715,357.787441 395.040032,359.070794 396.417969,360.367676 C399.417007,362.93442 402.416001,364.217773 405.415039,364.217773 C407.198251,364.217773 408.711257,363.785486 409.954102,362.920898 C410.710616,362.380531 411.723789,361.34034 412.993652,359.800293 L414.209473,360.772949 C414.047362,361.42139 413.479985,362.441318 412.507324,363.832764 C411.534663,365.224209 410.602544,366.311682 409.710938,367.095215 C408.305983,368.33806 406.671396,369.216143 404.807129,369.729492 C403.699376,370.053713 402.618658,370.21582 401.564941,370.21582 C398.94416,370.21582 396.350436,369.391773 393.783691,367.743652 C392.243645,366.770991 390.19028,365.055351 387.623535,362.59668 C385.191882,364.839204 382.733248,366.554844 380.247559,367.743652 C377.005355,369.364754 373.438984,370.175293 369.54834,370.175293 C365.225402,370.175293 361.773857,369.020275 359.193604,366.710205 C356.61335,364.400135 355.323242,361.245788 355.323242,357.24707 C355.323242,353.491518 356.47826,350.188572 358.78833,347.338135 C361.0984,344.487697 364.333801,341.887219 368.494629,339.536621 L371.655762,337.712891 Z" id="text-outline" sketch:type="MSShapeGroup"></path>
            <path d="M441.602164,270 C306.902116,270 38,276 38,276 C38,276 307.488192,282 442.481279,282 C571.821526,282 831,276 831,276 C831,276 571.235449,270 441.602164,270 Z" id="top-line" sketch:type="MSShapeGroup"></path>
            <path d="M441.602164,407 C306.902116,407 38,413 38,413 C38,413 307.488192,419 442.481279,419 C571.821526,419 831,413 831,413 C831,413 571.235449,407 441.602164,407 Z" id="bottom-line" sketch:type="MSShapeGroup"></path>
            <path d="M391.090485,213.56422 C390.074975,214.11659 389.054166,214.655715 388.028057,215.181596 C380.575694,219.000932 372.378217,220.910572 363.435382,220.910572 C358.777655,220.910572 354.446034,220.305076 350.440389,219.094067 C346.434744,217.883058 342.988078,216.019995 340.100288,213.504823 C337.212497,210.989651 335.023398,207.86902 333.532926,204.142839 C332.042453,200.416658 331.483534,196.03846 331.856152,191.008115 C327.757353,190.821806 323.565462,190.169734 319.280353,189.05188 C314.995244,187.934025 311.129389,186.257269 307.682671,184.02156 C304.235954,181.785851 301.441359,178.94468 299.298805,175.497963 C297.156251,172.051245 296.08499,167.812777 296.08499,162.782432 C296.08499,156.447924 297.901476,150.719006 301.534503,145.595506 C305.16753,140.472007 309.732033,136.140386 315.228151,132.600513 C320.724269,129.060641 326.639493,126.3592 332.974001,124.496109 C339.30851,122.633019 345.177157,121.701487 350.58012,121.701487 C355.610465,121.701487 360.640735,122.260406 365.67108,123.378261 C368.279407,115.739589 372.750757,109.218869 379.085266,103.815906 C385.419774,98.4129428 392.778872,95.7115018 401.16278,95.7115018 C405.447889,95.7115018 409.267168,96.3169972 412.620731,97.5280062 C415.974294,98.7390151 419.141501,100.322618 422.122446,102.278864 C425.103391,104.235109 427.897985,106.517361 430.506312,109.125688 C433.114639,111.734015 435.81608,114.435456 438.610716,117.230092 C444.945225,112.199747 451.465944,108.054432 458.173071,104.794024 C464.880198,101.533615 472.425602,99.9034349 480.80951,99.9034349 C488.634491,99.9034349 495.527823,101.580191 501.489713,104.933755 C507.451604,108.287318 512.016108,113.597047 515.183362,120.863101 C518.164307,119.931555 521.098631,119.32606 523.986421,119.046596 C526.874212,118.767133 529.715383,118.627403 532.510019,118.627403 C537.912982,118.627403 543.315864,119.372628 548.718827,120.863101 C554.12179,122.353573 558.919177,124.589249 563.111131,127.570194 C567.303085,130.551139 570.703174,134.323841 573.311501,138.888413 C575.919828,143.452985 577.223972,148.716138 577.223972,154.678028 C577.223972,163.620863 574.429378,171.166268 568.840106,177.314467 C563.250834,183.462666 556.357502,187.654557 548.159902,189.890266 C546.855739,194.734302 544.899523,199.391959 542.291196,203.863377 C539.682869,208.334795 536.515662,212.293803 532.789481,215.740521 C529.063299,219.187239 524.917985,221.935256 520.353413,223.984656 C515.78884,226.034056 510.805147,227.05874 505.402184,227.05874 C503.890864,227.05874 502.418781,226.994991 500.985932,226.867491 L500.985932,226.867491 C506.115485,228.71201 512.854662,229.634264 521.203481,229.634264 C529.513152,229.634264 538.027511,228.727236 546.746814,226.913153 C555.466117,225.09907 564.243807,222.81687 573.080147,220.066486 C581.916488,217.316102 590.723437,214.331687 599.501258,211.113153 C608.27908,207.894618 616.851957,204.910203 625.220147,202.159819 C633.588337,199.409435 641.693071,197.127236 649.534592,195.313153 C657.376112,193.49907 664.749372,192.592042 671.654592,192.592042 C674.69757,192.592042 677.857538,192.972408 681.134592,193.733153 C684.411645,194.493897 687.425319,195.664256 690.175703,197.244264 C692.926087,198.824272 695.208286,200.872399 697.02237,203.388708 C698.836453,205.905017 699.743481,208.977209 699.743481,212.605375 C699.743481,216.233541 698.660899,219.481287 696.495703,222.348708 C694.330507,225.21613 691.638682,227.76166 688.420147,229.985375 C685.201613,232.20909 681.719796,234.198699 677.974592,235.954264 C674.229388,237.709828 670.77683,239.289812 667.616814,240.694264 C666.680513,240.694264 666.153852,240.606487 666.036814,240.43093 C665.919776,240.255374 666.036812,240.07982 666.387925,239.904264 C666.739038,239.728707 667.177922,239.523895 667.704592,239.289819 C668.231261,239.055744 668.611628,238.88019 668.845703,238.763153 C670.95238,237.709814 673.644205,236.393161 676.921258,234.813153 C680.198312,233.233145 683.329021,231.419089 686.313481,229.37093 C689.29794,227.322772 691.872729,225.011314 694.037925,222.436486 C696.203121,219.861658 697.285703,217.111315 697.285703,214.185375 C697.285703,210.440171 695.647201,207.748346 692.370147,206.109819 C689.093094,204.471293 683.592408,203.652042 675.867925,203.652042 C667.909367,203.652042 659.395007,204.354257 650.324592,205.758708 C641.254176,207.16316 632.037602,208.889439 622.674592,210.937597 C613.311582,212.985756 603.948713,215.209437 594.585703,217.608708 C585.222693,220.00798 576.152413,222.231661 567.374592,224.279819 C558.59677,226.327978 550.316483,228.054257 542.533481,229.458708 C534.750479,230.86316 527.757586,231.565375 521.554592,231.565375 C509.113382,231.565375 500.028853,229.622988 494.30095,225.738184 C493.708183,225.586019 493.123507,225.420702 492.546923,225.242236 C488.634432,224.031227 484.954883,222.447624 481.508166,220.491378 C478.061448,218.535133 474.801088,216.206305 471.726988,213.504823 C468.652889,210.803341 465.532258,207.962171 462.365004,204.981226 L462.365004,205.260688 C459.19775,207.869015 456.403156,210.570456 453.981138,213.365092 C451.931738,215.78711 450.022099,218.348821 448.252163,221.050303 C446.482226,223.751784 445.597272,226.220342 445.597272,228.456051 C445.597272,229.387597 445.737001,230.552011 446.016465,231.949329 C446.295929,233.346647 446.715118,234.743944 447.274045,236.141262 C447.832972,237.53858 448.438467,238.796147 449.090549,239.914002 C449.742631,241.031856 450.44128,241.870234 451.186516,242.429162 C452.118061,242.80178 452.350944,243.314122 451.885171,243.966204 C451.419399,244.618286 450.907056,244.664862 450.348129,244.105935 C449.230275,243.547008 447.832978,242.941512 446.156196,242.289431 C444.479414,241.637349 442.756081,240.985277 440.986145,240.333195 C439.216209,239.681113 437.679182,239.029041 436.375019,238.37696 C435.070855,237.724878 434.32563,236.933076 434.139321,236.001531 C433.953012,235.442604 433.906435,234.790532 433.99959,234.045295 C434.092744,233.300059 434.046168,232.647987 433.859859,232.08906 C433.300932,227.617642 432.3694,223.84494 431.065237,220.77084 C429.761073,217.696741 428.130893,215.041876 426.174648,212.806168 C424.218403,210.570459 421.842998,208.614243 419.048362,206.937461 C416.253726,205.260679 413.086519,203.49077 409.546647,201.627679 C404.328552,205.576508 398.950387,209.124968 393.412058,212.273118 C391.229458,222.939743 379.830614,228.272983 359.215279,228.272983 C353.012285,228.272983 346.019392,227.570768 338.23639,226.166317 C330.453388,224.761865 322.1731,223.035586 313.395279,220.987428 C304.617457,218.939269 295.547177,216.715588 286.184167,214.316317 C276.821158,211.917045 267.458288,209.693364 258.095279,207.645206 C248.732269,205.597047 239.515694,203.870768 230.445279,202.466317 C221.374863,201.061865 212.860504,200.35965 204.901945,200.35965 C197.177462,200.35965 191.676776,201.178901 188.399723,202.817428 C185.12267,204.455954 183.484167,207.147779 183.484167,210.892983 C183.484167,213.818924 184.566749,216.569267 186.731945,219.144094 C188.897141,221.718922 191.47193,224.03038 194.45639,226.078539 C197.440849,228.126697 200.571558,229.940753 203.848612,231.520761 C207.125665,233.100769 209.81749,234.417422 211.924167,235.470761 C212.158243,235.587799 212.538609,235.763352 213.065279,235.997428 C213.591948,236.231503 214.030832,236.436316 214.381945,236.611872 C214.733058,236.787429 214.850094,236.962982 214.733056,237.138539 C214.616019,237.314095 214.089357,237.401872 213.153056,237.401872 C209.993041,235.997421 206.540482,234.417437 202.795279,232.661872 C199.050075,230.906308 195.568258,228.916698 192.349723,226.692983 C189.131188,224.469268 186.439363,221.923738 184.274167,219.056317 C182.108971,216.188895 181.02639,212.94115 181.02639,209.312983 C181.02639,205.684817 181.933418,202.612626 183.747501,200.096317 C185.561584,197.580008 187.843783,195.53188 190.594167,193.951872 C193.344552,192.371864 196.358225,191.201506 199.635279,190.440761 C202.912332,189.680017 206.0723,189.29965 209.115279,189.29965 C216.020498,189.29965 223.393758,190.206678 231.235279,192.020761 C239.076799,193.834844 247.181533,196.117044 255.549723,198.867428 C263.917913,201.617812 272.49079,204.602226 281.268612,207.820761 C290.046434,211.039296 298.853383,214.02371 307.689723,216.774094 C316.526064,219.524479 325.303754,221.806678 334.023056,223.620761 C342.742359,225.434844 351.256719,226.341872 359.56639,226.341872 C377.508061,226.341872 388.016031,222.08269 391.090485,213.56422 L391.090485,213.56422 Z M374.61387,174.799307 C370.142453,168.27849 366.882093,160.965968 364.832693,152.861524 C362.783293,144.757079 362.596987,136.792486 364.273769,128.967505 C357.566642,126.918105 351.045922,125.89342 344.711414,125.89342 C340.053687,125.89342 335.302877,126.545492 330.458841,127.849656 C325.614806,129.153819 321.236608,131.110035 317.324118,133.718362 C313.411627,136.326689 310.197844,139.587049 307.682671,143.49954 C305.167499,147.41203 303.909932,152.069687 303.909932,157.47265 C303.909932,165.670249 306.657949,172.470428 312.154067,177.873391 C317.650184,183.276354 324.310634,186.536714 332.135615,187.654569 C332.508233,185.605169 333.020575,183.5558 333.672657,181.5064 C334.324739,179.457 335.11654,177.221325 336.048086,174.799307 C336.420704,173.681453 337.026199,173.30884 337.86459,173.681458 C338.702981,174.054076 338.656404,174.706148 337.724859,175.637694 C336.793313,176.755548 336.280971,178.711764 336.187817,181.5064 C336.094662,184.301036 336.141239,186.443558 336.327548,187.934031 C343.407292,188.306649 350.207472,187.235388 356.728289,184.720215 C363.249107,182.205043 369.210907,178.898107 374.61387,174.799307 Z M460.129307,202.745528 C456.216816,199.019347 452.257808,195.200068 448.252163,191.287577 C444.246518,187.375087 440.194356,183.462655 436.095557,179.550165 C432.369375,182.717419 428.596673,185.931202 424.777337,189.191611 C420.958001,192.45202 417.092146,195.665803 413.179655,198.833057 C416.1606,200.882457 418.908618,202.838673 421.423791,204.701763 C423.938963,206.564854 426.174638,208.6608 428.130884,210.989663 C430.087129,213.318527 431.670732,215.926814 432.881741,218.814605 C434.09275,221.702396 434.791399,225.195638 434.977708,229.294438 C435.350326,227.617656 436.002398,225.987476 436.933943,224.403849 C437.865488,222.820222 439.309362,221.050312 441.265607,219.094067 C443.221853,217.137822 445.736987,214.85557 448.811087,212.247243 C451.885187,209.638916 455.657889,206.471709 460.129307,202.745528 Z M434.139321,177.873391 C429.295285,173.215665 424.497899,168.651161 419.747017,164.179743 C414.996136,159.708325 410.012443,155.423281 404.795789,151.324481 C400.51068,155.236972 396.691402,158.776791 393.337838,161.944045 C389.984275,165.1113 386.630762,168.0922 383.277199,170.886836 C387.00338,175.917181 391.288425,180.621415 396.132461,184.999678 C400.976496,189.377941 405.913613,193.430102 410.943958,197.156284 C414.670139,194.175339 418.489418,191.054709 422.401908,187.7943 C426.314399,184.533891 430.226831,181.226955 434.139321,177.873391 Z M402.839554,149.647708 C397.6229,145.548909 392.173441,141.86936 386.491014,138.608951 C380.808588,135.348542 374.80021,132.600525 368.465702,130.364816 C368.465702,137.44456 369.676693,144.198163 372.098711,150.625826 C374.520728,157.053489 377.781088,163.155019 381.879888,168.930601 C385.606069,165.763346 389.145889,162.549563 392.499452,159.289154 C395.853015,156.028746 399.299681,152.814962 402.839554,149.647708 Z M432.74201,122.260412 C426.966429,117.416376 421.051205,113.131331 414.99616,109.40515 C408.941115,105.678969 401.908053,103.815906 393.896763,103.815906 C387.189636,103.815906 381.647025,105.539239 377.268761,108.985957 C372.890498,112.432675 370.142481,117.416367 369.024626,123.937185 C376.29068,125.800276 383.137436,128.548293 389.565099,132.18132 C395.992762,135.814347 402.187445,139.959662 408.149336,144.617388 C412.248135,140.891207 416.300297,137.165081 420.305942,133.4389 C424.311587,129.712719 428.456901,125.986593 432.74201,122.260412 Z M465.439088,151.045019 C460.408744,146.759911 455.285321,142.241983 450.068667,137.491102 C444.852013,132.740221 439.72859,128.222294 434.698245,123.937185 C430.413137,127.477057 426.267822,131.156606 422.262177,134.975942 C418.256532,138.795278 414.204371,142.56798 410.105571,146.294162 C415.322225,150.57927 420.399071,154.957468 425.336261,159.428886 C430.273452,163.900303 435.163992,168.371654 440.008027,172.843072 C444.293136,169.11689 448.531604,165.437341 452.723558,161.804314 C456.915512,158.171287 461.15398,154.584892 465.439088,151.045019 Z M493.664772,173.96092 C489.007045,170.607357 484.489118,167.114114 480.110854,163.481088 C475.732591,159.848061 471.40097,156.168512 467.115862,152.44233 C462.830753,155.982203 458.592285,159.615175 454.400331,163.341356 C450.208377,167.067538 445.969909,170.793663 441.684801,174.519845 C445.969909,178.432335 450.208377,182.298191 454.400331,186.117527 C458.592285,189.936862 462.830753,193.616411 467.115862,197.156284 C471.773589,193.430102 476.291516,189.703977 480.669779,185.977795 C485.048042,182.251614 489.379663,178.246029 493.664772,173.96092 Z M545.644743,190.449191 C542.663797,191.008118 539.682897,191.287577 536.701952,191.287577 C529.435898,191.287577 522.309683,189.657397 515.323093,186.396989 C508.336503,183.13658 501.86236,179.457031 495.900469,175.358231 C491.615361,179.457031 487.237163,183.416039 482.765745,187.235375 C478.294328,191.054711 473.822977,194.920567 469.351559,198.833057 C475.127141,203.677093 481.414977,208.008714 488.215259,211.82805 C495.01554,215.647386 502.328061,217.557025 510.153042,217.557025 C518.909568,217.557025 526.361819,215.088467 532.510019,210.151277 C538.658218,205.214086 543.036416,198.64679 545.644743,190.449191 Z M511.829815,142.661153 C511.829815,137.25819 510.339365,131.762155 507.35842,126.172883 C501.39653,128.78121 495.341576,132.088146 489.193376,136.093791 C483.045177,140.099436 477.176529,144.337904 471.587257,148.809322 C475.872366,152.535503 480.110834,156.168475 484.302788,159.708348 C488.494742,163.24822 493.012669,166.601733 497.856705,169.768987 C501.769195,165.483879 505.076132,161.385141 507.777613,157.47265 C510.479095,153.56016 511.829815,148.623043 511.829815,142.661153 Z M506.240571,124.216647 C502.51439,118.254757 497.856733,113.5971 492.267461,110.243537 C486.678188,106.889973 480.343775,105.213217 473.26403,105.213217 C466.743213,105.213217 460.921142,106.610514 455.797642,109.40515 C450.674143,112.199786 445.597297,115.460146 440.566952,119.186327 C445.410988,124.030363 450.301527,128.82775 455.238718,133.578631 C460.175908,138.329512 465.066448,142.84744 469.910484,147.132548 C476.244992,142.288512 482.393099,137.910315 488.35499,133.997824 C494.31688,130.085334 500.278681,126.824974 506.240571,124.216647 Z M572.193652,150.765557 C572.193652,145.548903 570.936085,141.077552 568.420913,137.351371 C565.90574,133.62519 562.738533,130.551136 558.919197,128.129118 C555.099862,125.7071 550.814817,123.890614 546.063936,122.679605 C541.313055,121.468596 536.701974,120.863101 532.230557,120.863101 C527.013903,120.863101 521.61102,121.608326 516.021748,123.098798 C516.580676,124.961889 517.046441,126.778375 517.419059,128.548311 C517.791678,130.318248 517.977984,132.134734 517.977984,133.997824 C517.977984,141.636496 516.254651,148.390099 512.807933,154.258835 C509.361215,160.12757 505.122747,165.763335 500.092402,171.166298 C505.495365,174.333553 510.991401,176.848687 516.580673,178.711778 C522.169945,180.574869 528.131746,181.5064 534.466254,181.5064 C538.006127,181.5064 541.918558,181.040634 546.203667,180.109089 C545.64474,177.128144 544.340596,174.613009 542.291196,172.563609 C541.732269,172.004682 540.940467,171.399187 539.915767,170.747105 C538.891067,170.095023 537.866383,169.489528 536.841683,168.930601 C535.816983,168.371673 534.932028,167.859331 534.186792,167.393558 C533.441556,166.927786 533.068943,166.60175 533.068943,166.415441 C533.068943,165.670204 533.721015,164.598943 535.025179,163.201625 C536.329342,161.804307 537.260873,161.105659 537.819801,161.105659 C538.751346,161.105659 539.776031,161.524848 540.893885,162.363239 C542.011739,163.20163 543.036424,164.226314 543.967969,165.437323 C544.899515,166.648332 545.737893,167.859323 546.483129,169.070332 C547.228365,170.281341 547.694131,171.259449 547.88044,172.004685 C548.811986,174.799321 549.277751,177.221303 549.277751,179.270702 C555.984878,177.221303 561.480913,173.821213 565.766022,169.070332 C570.05113,164.31945 572.193652,158.21792 572.193652,150.765557 Z M406.752025,200.230368 C400.790134,197.063114 395.247523,193.756177 390.124023,190.30946 C385.000524,186.862742 380.29629,182.344815 376.011182,176.755543 C370.421909,181.040651 364.273802,184.440741 357.566676,186.955913 C350.859549,189.471086 343.966217,190.821806 336.886472,191.008115 C338.749563,198.833096 342.988031,204.74832 349.602003,208.753965 C356.215975,212.75961 363.34219,214.762403 370.980862,214.762403 C377.874297,214.762403 384.208711,213.318529 389.984292,210.430739 C395.759873,207.542948 401.349061,204.142859 406.752025,200.230368 Z M449.8,48.96 C449.8,49.493336 449.586669,50.2133288 449.16,51.12 C448.733331,52.0266712 448.173337,52.9066624 447.48,53.76 C446.786663,54.6133376 446.013338,55.3333304 445.16,55.92 C444.306662,56.5066696 443.453338,56.8 442.6,56.8 C441.85333,56.8 441.18667,56.5866688 440.6,56.16 C440.01333,55.7333312 439.72,55.0933376 439.72,54.24 C439.72,52.106656 440.439993,50.240008 441.88,48.64 C443.320007,47.039992 444.946658,46.24 446.76,46.24 C447.293336,46.24 447.93333,46.4266648 448.68,46.8 C449.42667,47.1733352 449.8,47.893328 449.8,48.96 L449.8,48.96 Z" id="top-motif-outline" sketch:type="MSShapeGroup"></path>
            <path d="M391.090485,618.32422 C390.074975,618.87659 389.054166,619.415715 388.028057,619.941596 C380.575694,623.760932 372.378217,625.670572 363.435382,625.670572 C358.777655,625.670572 354.446034,625.065076 350.440389,623.854067 C346.434744,622.643058 342.988078,620.779995 340.100288,618.264823 C337.212497,615.749651 335.023398,612.62902 333.532926,608.902839 C332.042453,605.176658 331.483534,600.79846 331.856152,595.768115 C327.757353,595.581806 323.565462,594.929734 319.280353,593.81188 C314.995244,592.694025 311.129389,591.017269 307.682671,588.78156 C304.235954,586.545851 301.441359,583.70468 299.298805,580.257963 C297.156251,576.811245 296.08499,572.572777 296.08499,567.542432 C296.08499,561.207924 297.901476,555.479006 301.534503,550.355506 C305.16753,545.232007 309.732033,540.900386 315.228151,537.360513 C320.724269,533.820641 326.639493,531.1192 332.974001,529.256109 C339.30851,527.393019 345.177157,526.461487 350.58012,526.461487 C355.610465,526.461487 360.640735,527.020406 365.67108,528.138261 C368.279407,520.499589 372.750757,513.978869 379.085266,508.575906 C385.419774,503.172943 392.778872,500.471502 401.16278,500.471502 C405.447889,500.471502 409.267168,501.076997 412.620731,502.288006 C415.974294,503.499015 419.141501,505.082618 422.122446,507.038864 C425.103391,508.995109 427.897985,511.277361 430.506312,513.885688 C433.114639,516.494015 435.81608,519.195456 438.610716,521.990092 C444.945225,516.959747 451.465944,512.814432 458.173071,509.554024 C464.880198,506.293615 472.425602,504.663435 480.80951,504.663435 C488.634491,504.663435 495.527823,506.340191 501.489713,509.693755 C507.451604,513.047318 512.016108,518.357047 515.183362,525.623101 C518.164307,524.691555 521.098631,524.08606 523.986421,523.806596 C526.874212,523.527133 529.715383,523.387403 532.510019,523.387403 C537.912982,523.387403 543.315864,524.132628 548.718827,525.623101 C554.12179,527.113573 558.919177,529.349249 563.111131,532.330194 C567.303085,535.311139 570.703174,539.083841 573.311501,543.648413 C575.919828,548.212985 577.223972,553.476138 577.223972,559.438028 C577.223972,568.380863 574.429378,575.926268 568.840106,582.074467 C563.250834,588.222666 556.357502,592.414557 548.159902,594.650266 C546.855739,599.494302 544.899523,604.151959 542.291196,608.623377 C539.682869,613.094795 536.515662,617.053803 532.789481,620.500521 C529.063299,623.947239 524.917985,626.695256 520.353413,628.744656 C515.78884,630.794056 510.805147,631.81874 505.402184,631.81874 C503.890864,631.81874 502.418781,631.754991 500.985932,631.627491 L500.985932,631.627491 C506.115485,633.47201 512.854662,634.394264 521.203481,634.394264 C529.513152,634.394264 538.027511,633.487236 546.746814,631.673153 C555.466117,629.85907 564.243807,627.57687 573.080147,624.826486 C581.916488,622.076102 590.723437,619.091687 599.501258,615.873153 C608.27908,612.654618 616.851957,609.670203 625.220147,606.919819 C633.588337,604.169435 641.693071,601.887236 649.534592,600.073153 C657.376112,598.25907 664.749372,597.352042 671.654592,597.352042 C674.69757,597.352042 677.857538,597.732408 681.134592,598.493153 C684.411645,599.253897 687.425319,600.424256 690.175703,602.004264 C692.926087,603.584272 695.208286,605.632399 697.02237,608.148708 C698.836453,610.665017 699.743481,613.737209 699.743481,617.365375 C699.743481,620.993541 698.660899,624.241287 696.495703,627.108708 C694.330507,629.97613 691.638682,632.52166 688.420147,634.745375 C685.201613,636.96909 681.719796,638.958699 677.974592,640.714264 C674.229388,642.469828 670.77683,644.049812 667.616814,645.454264 C666.680513,645.454264 666.153852,645.366487 666.036814,645.19093 C665.919776,645.015374 666.036812,644.83982 666.387925,644.664264 C666.739038,644.488707 667.177922,644.283895 667.704592,644.049819 C668.231261,643.815744 668.611628,643.64019 668.845703,643.523153 C670.95238,642.469814 673.644205,641.153161 676.921258,639.573153 C680.198312,637.993145 683.329021,636.179089 686.313481,634.13093 C689.29794,632.082772 691.872729,629.771314 694.037925,627.196486 C696.203121,624.621658 697.285703,621.871315 697.285703,618.945375 C697.285703,615.200171 695.647201,612.508346 692.370147,610.869819 C689.093094,609.231293 683.592408,608.412042 675.867925,608.412042 C667.909367,608.412042 659.395007,609.114257 650.324592,610.518708 C641.254176,611.92316 632.037602,613.649439 622.674592,615.697597 C613.311582,617.745756 603.948713,619.969437 594.585703,622.368708 C585.222693,624.76798 576.152413,626.991661 567.374592,629.039819 C558.59677,631.087978 550.316483,632.814257 542.533481,634.218708 C534.750479,635.62316 527.757586,636.325375 521.554592,636.325375 C509.113382,636.325375 500.028853,634.382988 494.30095,630.498184 C493.708183,630.346019 493.123507,630.180702 492.546923,630.002236 C488.634432,628.791227 484.954883,627.207624 481.508166,625.251378 C478.061448,623.295133 474.801088,620.966305 471.726988,618.264823 C468.652889,615.563341 465.532258,612.722171 462.365004,609.741226 L462.365004,610.020688 C459.19775,612.629015 456.403156,615.330456 453.981138,618.125092 C451.931738,620.54711 450.022099,623.108821 448.252163,625.810303 C446.482226,628.511784 445.597272,630.980342 445.597272,633.216051 C445.597272,634.147597 445.737001,635.312011 446.016465,636.709329 C446.295929,638.106647 446.715118,639.503944 447.274045,640.901262 C447.832972,642.29858 448.438467,643.556147 449.090549,644.674002 C449.742631,645.791856 450.44128,646.630234 451.186516,647.189162 C452.118061,647.56178 452.350944,648.074122 451.885171,648.726204 C451.419399,649.378286 450.907056,649.424862 450.348129,648.865935 C449.230275,648.307008 447.832978,647.701512 446.156196,647.049431 C444.479414,646.397349 442.756081,645.745277 440.986145,645.093195 C439.216209,644.441113 437.679182,643.789041 436.375019,643.13696 C435.070855,642.484878 434.32563,641.693076 434.139321,640.761531 C433.953012,640.202604 433.906435,639.550532 433.99959,638.805295 C434.092744,638.060059 434.046168,637.407987 433.859859,636.84906 C433.300932,632.377642 432.3694,628.60494 431.065237,625.53084 C429.761073,622.456741 428.130893,619.801876 426.174648,617.566168 C424.218403,615.330459 421.842998,613.374243 419.048362,611.697461 C416.253726,610.020679 413.086519,608.25077 409.546647,606.387679 C404.328552,610.336508 398.950387,613.884968 393.412058,617.033118 C391.229458,627.699743 379.830614,633.032983 359.215279,633.032983 C353.012285,633.032983 346.019392,632.330768 338.23639,630.926317 C330.453388,629.521865 322.1731,627.795586 313.395279,625.747428 C304.617457,623.699269 295.547177,621.475588 286.184167,619.076317 C276.821158,616.677045 267.458288,614.453364 258.095279,612.405206 C248.732269,610.357047 239.515694,608.630768 230.445279,607.226317 C221.374863,605.821865 212.860504,605.11965 204.901945,605.11965 C197.177462,605.11965 191.676776,605.938901 188.399723,607.577428 C185.12267,609.215954 183.484167,611.907779 183.484167,615.652983 C183.484167,618.578924 184.566749,621.329267 186.731945,623.904094 C188.897141,626.478922 191.47193,628.79038 194.45639,630.838539 C197.440849,632.886697 200.571558,634.700753 203.848612,636.280761 C207.125665,637.860769 209.81749,639.177422 211.924167,640.230761 C212.158243,640.347799 212.538609,640.523352 213.065279,640.757428 C213.591948,640.991503 214.030832,641.196316 214.381945,641.371872 C214.733058,641.547429 214.850094,641.722982 214.733056,641.898539 C214.616019,642.074095 214.089357,642.161872 213.153056,642.161872 C209.993041,640.757421 206.540482,639.177437 202.795279,637.421872 C199.050075,635.666308 195.568258,633.676698 192.349723,631.452983 C189.131188,629.229268 186.439363,626.683738 184.274167,623.816317 C182.108971,620.948895 181.02639,617.70115 181.02639,614.072983 C181.02639,610.444817 181.933418,607.372626 183.747501,604.856317 C185.561584,602.340008 187.843783,600.29188 190.594167,598.711872 C193.344552,597.131864 196.358225,595.961506 199.635279,595.200761 C202.912332,594.440017 206.0723,594.05965 209.115279,594.05965 C216.020498,594.05965 223.393758,594.966678 231.235279,596.780761 C239.076799,598.594844 247.181533,600.877044 255.549723,603.627428 C263.917913,606.377812 272.49079,609.362226 281.268612,612.580761 C290.046434,615.799296 298.853383,618.78371 307.689723,621.534094 C316.526064,624.284479 325.303754,626.566678 334.023056,628.380761 C342.742359,630.194844 351.256719,631.101872 359.56639,631.101872 C377.508061,631.101872 388.016031,626.84269 391.090485,618.32422 L391.090485,618.32422 Z M374.61387,579.559307 C370.142453,573.03849 366.882093,565.725968 364.832693,557.621524 C362.783293,549.517079 362.596987,541.552486 364.273769,533.727505 C357.566642,531.678105 351.045922,530.65342 344.711414,530.65342 C340.053687,530.65342 335.302877,531.305492 330.458841,532.609656 C325.614806,533.913819 321.236608,535.870035 317.324118,538.478362 C313.411627,541.086689 310.197844,544.347049 307.682671,548.25954 C305.167499,552.17203 303.909932,556.829687 303.909932,562.23265 C303.909932,570.430249 306.657949,577.230428 312.154067,582.633391 C317.650184,588.036354 324.310634,591.296714 332.135615,592.414569 C332.508233,590.365169 333.020575,588.3158 333.672657,586.2664 C334.324739,584.217 335.11654,581.981325 336.048086,579.559307 C336.420704,578.441453 337.026199,578.06884 337.86459,578.441458 C338.702981,578.814076 338.656404,579.466148 337.724859,580.397694 C336.793313,581.515548 336.280971,583.471764 336.187817,586.2664 C336.094662,589.061036 336.141239,591.203558 336.327548,592.694031 C343.407292,593.066649 350.207472,591.995388 356.728289,589.480215 C363.249107,586.965043 369.210907,583.658107 374.61387,579.559307 Z M460.129307,607.505528 C456.216816,603.779347 452.257808,599.960068 448.252163,596.047577 C444.246518,592.135087 440.194356,588.222655 436.095557,584.310165 C432.369375,587.477419 428.596673,590.691202 424.777337,593.951611 C420.958001,597.21202 417.092146,600.425803 413.179655,603.593057 C416.1606,605.642457 418.908618,607.598673 421.423791,609.461763 C423.938963,611.324854 426.174638,613.4208 428.130884,615.749663 C430.087129,618.078527 431.670732,620.686814 432.881741,623.574605 C434.09275,626.462396 434.791399,629.955638 434.977708,634.054438 C435.350326,632.377656 436.002398,630.747476 436.933943,629.163849 C437.865488,627.580222 439.309362,625.810312 441.265607,623.854067 C443.221853,621.897822 445.736987,619.61557 448.811087,617.007243 C451.885187,614.398916 455.657889,611.231709 460.129307,607.505528 Z M434.139321,582.633391 C429.295285,577.975665 424.497899,573.411161 419.747017,568.939743 C414.996136,564.468325 410.012443,560.183281 404.795789,556.084481 C400.51068,559.996972 396.691402,563.536791 393.337838,566.704045 C389.984275,569.8713 386.630762,572.8522 383.277199,575.646836 C387.00338,580.677181 391.288425,585.381415 396.132461,589.759678 C400.976496,594.137941 405.913613,598.190102 410.943958,601.916284 C414.670139,598.935339 418.489418,595.814709 422.401908,592.5543 C426.314399,589.293891 430.226831,585.986955 434.139321,582.633391 Z M402.839554,554.407708 C397.6229,550.308909 392.173441,546.62936 386.491014,543.368951 C380.808588,540.108542 374.80021,537.360525 368.465702,535.124816 C368.465702,542.20456 369.676693,548.958163 372.098711,555.385826 C374.520728,561.813489 377.781088,567.915019 381.879888,573.690601 C385.606069,570.523346 389.145889,567.309563 392.499452,564.049154 C395.853015,560.788746 399.299681,557.574962 402.839554,554.407708 Z M432.74201,527.020412 C426.966429,522.176376 421.051205,517.891331 414.99616,514.16515 C408.941115,510.438969 401.908053,508.575906 393.896763,508.575906 C387.189636,508.575906 381.647025,510.299239 377.268761,513.745957 C372.890498,517.192675 370.142481,522.176367 369.024626,528.697185 C376.29068,530.560276 383.137436,533.308293 389.565099,536.94132 C395.992762,540.574347 402.187445,544.719662 408.149336,549.377388 C412.248135,545.651207 416.300297,541.925081 420.305942,538.1989 C424.311587,534.472719 428.456901,530.746593 432.74201,527.020412 Z M465.439088,555.805019 C460.408744,551.519911 455.285321,547.001983 450.068667,542.251102 C444.852013,537.500221 439.72859,532.982294 434.698245,528.697185 C430.413137,532.237057 426.267822,535.916606 422.262177,539.735942 C418.256532,543.555278 414.204371,547.32798 410.105571,551.054162 C415.322225,555.33927 420.399071,559.717468 425.336261,564.188886 C430.273452,568.660303 435.163992,573.131654 440.008027,577.603072 C444.293136,573.87689 448.531604,570.197341 452.723558,566.564314 C456.915512,562.931287 461.15398,559.344892 465.439088,555.805019 Z M493.664772,578.72092 C489.007045,575.367357 484.489118,571.874114 480.110854,568.241088 C475.732591,564.608061 471.40097,560.928512 467.115862,557.20233 C462.830753,560.742203 458.592285,564.375175 454.400331,568.101356 C450.208377,571.827538 445.969909,575.553663 441.684801,579.279845 C445.969909,583.192335 450.208377,587.058191 454.400331,590.877527 C458.592285,594.696862 462.830753,598.376411 467.115862,601.916284 C471.773589,598.190102 476.291516,594.463977 480.669779,590.737795 C485.048042,587.011614 489.379663,583.006029 493.664772,578.72092 Z M545.644743,595.209191 C542.663797,595.768118 539.682897,596.047577 536.701952,596.047577 C529.435898,596.047577 522.309683,594.417397 515.323093,591.156989 C508.336503,587.89658 501.86236,584.217031 495.900469,580.118231 C491.615361,584.217031 487.237163,588.176039 482.765745,591.995375 C478.294328,595.814711 473.822977,599.680567 469.351559,603.593057 C475.127141,608.437093 481.414977,612.768714 488.215259,616.58805 C495.01554,620.407386 502.328061,622.317025 510.153042,622.317025 C518.909568,622.317025 526.361819,619.848467 532.510019,614.911277 C538.658218,609.974086 543.036416,603.40679 545.644743,595.209191 Z M511.829815,547.421153 C511.829815,542.01819 510.339365,536.522155 507.35842,530.932883 C501.39653,533.54121 495.341576,536.848146 489.193376,540.853791 C483.045177,544.859436 477.176529,549.097904 471.587257,553.569322 C475.872366,557.295503 480.110834,560.928475 484.302788,564.468348 C488.494742,568.00822 493.012669,571.361733 497.856705,574.528987 C501.769195,570.243879 505.076132,566.145141 507.777613,562.23265 C510.479095,558.32016 511.829815,553.383043 511.829815,547.421153 Z M506.240571,528.976647 C502.51439,523.014757 497.856733,518.3571 492.267461,515.003537 C486.678188,511.649973 480.343775,509.973217 473.26403,509.973217 C466.743213,509.973217 460.921142,511.370514 455.797642,514.16515 C450.674143,516.959786 445.597297,520.220146 440.566952,523.946327 C445.410988,528.790363 450.301527,533.58775 455.238718,538.338631 C460.175908,543.089512 465.066448,547.60744 469.910484,551.892548 C476.244992,547.048512 482.393099,542.670315 488.35499,538.757824 C494.31688,534.845334 500.278681,531.584974 506.240571,528.976647 Z M572.193652,555.525557 C572.193652,550.308903 570.936085,545.837552 568.420913,542.111371 C565.90574,538.38519 562.738533,535.311136 558.919197,532.889118 C555.099862,530.4671 550.814817,528.650614 546.063936,527.439605 C541.313055,526.228596 536.701974,525.623101 532.230557,525.623101 C527.013903,525.623101 521.61102,526.368326 516.021748,527.858798 C516.580676,529.721889 517.046441,531.538375 517.419059,533.308311 C517.791678,535.078248 517.977984,536.894734 517.977984,538.757824 C517.977984,546.396496 516.254651,553.150099 512.807933,559.018835 C509.361215,564.88757 505.122747,570.523335 500.092402,575.926298 C505.495365,579.093553 510.991401,581.608687 516.580673,583.471778 C522.169945,585.334869 528.131746,586.2664 534.466254,586.2664 C538.006127,586.2664 541.918558,585.800634 546.203667,584.869089 C545.64474,581.888144 544.340596,579.373009 542.291196,577.323609 C541.732269,576.764682 540.940467,576.159187 539.915767,575.507105 C538.891067,574.855023 537.866383,574.249528 536.841683,573.690601 C535.816983,573.131673 534.932028,572.619331 534.186792,572.153558 C533.441556,571.687786 533.068943,571.36175 533.068943,571.175441 C533.068943,570.430204 533.721015,569.358943 535.025179,567.961625 C536.329342,566.564307 537.260873,565.865659 537.819801,565.865659 C538.751346,565.865659 539.776031,566.284848 540.893885,567.123239 C542.011739,567.96163 543.036424,568.986314 543.967969,570.197323 C544.899515,571.408332 545.737893,572.619323 546.483129,573.830332 C547.228365,575.041341 547.694131,576.019449 547.88044,576.764685 C548.811986,579.559321 549.277751,581.981303 549.277751,584.030702 C555.984878,581.981303 561.480913,578.581213 565.766022,573.830332 C570.05113,569.07945 572.193652,562.97792 572.193652,555.525557 Z M406.752025,604.990368 C400.790134,601.823114 395.247523,598.516177 390.124023,595.06946 C385.000524,591.622742 380.29629,587.104815 376.011182,581.515543 C370.421909,585.800651 364.273802,589.200741 357.566676,591.715913 C350.859549,594.231086 343.966217,595.581806 336.886472,595.768115 C338.749563,603.593096 342.988031,609.50832 349.602003,613.513965 C356.215975,617.51961 363.34219,619.522403 370.980862,619.522403 C377.874297,619.522403 384.208711,618.078529 389.984292,615.190739 C395.759873,612.302948 401.349061,608.902859 406.752025,604.990368 Z M449.8,453.72 C449.8,454.253336 449.586669,454.973329 449.16,455.88 C448.733331,456.786671 448.173337,457.666662 447.48,458.52 C446.786663,459.373338 446.013338,460.09333 445.16,460.68 C444.306662,461.26667 443.453338,461.56 442.6,461.56 C441.85333,461.56 441.18667,461.346669 440.6,460.92 C440.01333,460.493331 439.72,459.853338 439.72,459 C439.72,456.866656 440.439993,455.000008 441.88,453.4 C443.320007,451.799992 444.946658,451 446.76,451 C447.293336,451 447.93333,451.186665 448.68,451.56 C449.42667,451.933335 449.8,452.653328 449.8,453.72 L449.8,453.72 Z" id="bottom-motif-outline" sketch:type="MSShapeGroup" transform="translate(440.384935, 550.126442) scale(1, -1) translate(-440.384935, -550.126442) "></path>
        </g>
    </g>
</svg>