<?xml version="1.0" encoding="UTF-8" standalone="no"?>
<svg width="600px" height="600px" viewBox="0 0 600 600" version="1.1" xmlns="http://www.w3.org/2000/svg" xmlns:xlink="http://www.w3.org/1999/xlink" xmlns:sketch="http://www.bohemiancoding.com/sketch/ns">
    <!-- Generator: Sketch 3.1 (8751) - http://www.bohemiancoding.com/sketch -->
    <title>gift</title>
    <desc>Created with Sketch.</desc>
    <defs></defs>
    <g id="Page-1" stroke="none" stroke-width="1" fill="none" fill-rule="evenodd" sketch:type="MSPage">
        <g id="gift" sketch:type="MSArtboardGroup" fill="#961C00">
            <path d="M271.62843,139.799675 C286.169029,114.090953 311.524102,89.1356566 313.061705,59.5931777 C313.825381,44.8526903 299.392414,28.0313136 280.490148,40.1578759 C267.794673,48.3122971 261.70064,64.3699977 259.650502,78.8285912 C252.449395,65.7435897 239.625786,52.5919588 224.521399,48.7992047 C202.713063,43.3304634 198.018249,61.4946801 203.451113,75.2357255 C214.321966,102.743443 249.650958,120.056853 271.62843,139.799675 L271.62843,139.799675 Z" id="Shape" sketch:type="MSShapeGroup"></path>
            <path d="M321.077095,168.200694 C325.525893,167.073118 330.072072,166.452952 334.690007,166.452952 C360.060456,166.452952 383.985559,184.40703 392.093852,207.271186 C418.381738,198.506849 445.781823,189.055716 463.372002,172.162584 C494.334201,142.445844 473.817451,110.089551 449.190177,110.66359 C429.924011,111.155623 414.204583,124.650652 402.59568,130.319281 C390.545998,84.2834478 337.913848,56.8372343 317.284341,115.578794 C311.210809,132.881953 314.742171,150.7489 321.077095,168.200694 L321.077095,168.200694 Z" id="Shape" sketch:type="MSShapeGroup"></path>
            <path d="M529.242231,276.363226 C528.001898,256.56915 490.694524,215.771417 468.558166,193.209656 L466.236386,190.841747 L445.822143,210.871589 L448.138799,213.244623 C465.708475,231.147447 483.339657,251.566815 493.154689,265.292484 L350.275493,358.040697 C345.478172,353.30488 341.270265,349.117474 337.631271,345.463104 C356.769303,308.637513 382.908554,256.748537 380.310005,219.364283 C378.413628,192.010325 339.609654,164.066954 308.12467,190.354839 C286.972378,207.991146 283.815166,219.85119 283.338509,246.959131 C267.398692,224.310239 259.818309,212.865347 231.649422,208.964961 C191.031076,203.357835 172.713099,246.554229 185.598212,270.776602 C196.315305,290.898699 228.317949,320.364298 253.134861,338.661774 L232.14658,354.042929 L117.718165,232.351903 C118.425463,231.731736 119.061005,231.178199 119.588916,230.722043 C123.643062,227.262437 127.722835,223.823331 131.802609,220.394477 L233.889197,134.714112 L215.402084,112.88015 L113.397501,198.493885 C109.256223,201.973993 105.120071,205.464352 101.024922,208.959836 C97.9548415,211.578886 88.1193076,220.466231 85.9820395,222.83414 C79.9085076,229.543215 78.3401526,240.603705 77.5457243,251.551439 L77.4585935,252.602134 C77.1715743,255.774722 76.0901268,269.387634 75.823609,273.062505 L63,466.69285 C63,490.033664 80.631181,500.894266 90.2258237,503.431311 L92.3169638,503.79521 C334.217793,526.274966 472.520057,537.468716 473.873147,537.581473 C474.703453,537.637852 475.518383,537.658354 476.317936,537.658354 C500.227663,537.648103 509.888935,517.695141 511.67768,506.875542 L511.841691,504.794652 C511.841691,437.739786 527.371481,295.106606 529.170476,278.859268 L529.288359,277.32679 L529.242231,276.363226 L529.242231,276.363226 Z M208.903148,371.074445 L92.3220891,456.483166 L104.361521,275.076765 C104.530657,272.744733 105.053442,266.168918 105.463469,261.079452 L208.903148,371.074445 L208.903148,371.074445 Z M371.186894,378.572822 L498.572177,295.875408 C494.020872,339.010297 485.189905,428.493666 483.519044,487.224975 C458.625251,463.289622 408.463516,414.978136 371.186894,378.572822 L371.186894,378.572822 Z M272.918686,359.634679 C278.448932,355.652287 284.609595,353.627776 291.231538,353.627776 C300.569914,353.627776 308.345059,357.651171 310.994862,359.199025 C336.139796,385.066632 427.18127,472.756131 463.914605,508.074872 C425.602664,504.90741 304.895703,494.754105 112.761958,476.969163 L254.047172,373.46798 C265.256298,365.252055 270.42777,361.454176 272.708547,359.342534 L272.918686,359.634679 L272.918686,359.634679 Z" id="Shape" sketch:type="MSShapeGroup"></path>
        </g>
    </g>
</svg>