<?xml version="1.0" encoding="UTF-8"?><!DOCTYPE svg PUBLIC "-//W3C//DTD SVG 1.1//EN" "http://www.w3.org/Graphics/SVG/1.1/DTD/svg11.dtd"><svg xmlns="http://www.w3.org/2000/svg"><symbol id="emblem-flat" viewBox="0 0 875 698"><title>emblem</title><g fill="currentColor" fill-rule="evenodd"><path d="M61.348 320.348h38.98l.37 11.725h-1.65c-.808-3.684-1.836-6.082-3.082-7.193-1.247-1.112-3.87-1.668-7.867-1.668h-3.842v35.31c0 2.67.415 4.328 1.246 4.968.83.64 2.65 1.06 5.458 1.263V366H70.85v-1.247c2.92-.224 4.738-.707 5.457-1.448.718-.742 1.078-2.606 1.078-5.593v-34.5h-3.84c-3.82 0-6.42.55-7.8 1.65-1.382 1.1-2.42 3.505-3.117 7.21h-1.685l.405-11.724zm41.783 44.55c2.384-.258 3.873-.7 4.47-1.325.594-.626.892-2.26.892-4.9v-26.42c0-2.184-.332-3.604-.998-4.26-.665-.654-2.12-1.06-4.363-1.22v-1.132h16.95v1.133c-2.245.16-3.705.566-4.38 1.22-.675.656-1.013 2.076-1.013 4.26v11.885h18.497v-11.885c0-2.184-.328-3.604-.983-4.26-.654-.654-2.114-1.06-4.377-1.22v-1.132h16.948v1.133c-2.243.16-3.698.566-4.363 1.22-.665.656-.998 2.076-.998 4.26v27.135c0 2.224.332 3.648.997 4.274.665.625 2.12 1.037 4.364 1.236V366h-16.947v-1.102c2.402-.238 3.897-.675 4.482-1.31.586-.636.88-2.274.88-4.915v-11.855h-18.498v12.57c0 2.224.338 3.653 1.013 4.29.675.634 2.135 1.04 4.38 1.22V366h-16.95v-1.102zm55.58-4.84c2.522 3.068 5.62 4.602 9.293 4.602 3.594 0 6.667-1.495 9.218-4.483 2.553-2.988 3.83-7.77 3.83-14.342 0-6.652-1.292-11.457-3.873-14.416-2.582-2.96-5.64-4.44-9.174-4.44-3.654 0-6.746 1.535-9.278 4.603-2.532 3.068-3.798 7.82-3.798 14.252 0 6.414 1.26 11.155 3.783 14.223zm-4.557-29.89c3.753-3.594 8.37-5.39 13.85-5.39 5.5 0 10.127 1.806 13.88 5.42 4.07 3.912 6.106 9.124 6.106 15.637 0 6.613-2.106 11.875-6.316 15.787-3.772 3.494-8.33 5.242-13.67 5.242-5.72 0-10.466-1.936-14.238-5.808-3.833-3.952-5.75-9.025-5.75-15.22 0-6.514 2.046-11.736 6.137-15.668zm36.785 34.73c2.52-.258 4.14-.83 4.854-1.713.715-.883 1.073-2.934 1.073-6.15v-24.782c0-2.204-.348-3.638-1.043-4.304-.695-.666-2.273-1.058-4.736-1.177v-1.132h12.063l14.118 30.77 13.492-30.77h12.153v1.133c-2.264.16-3.724.57-4.38 1.236-.654.664-.982 2.08-.982 4.243v27.135c0 2.224.33 3.648.984 4.274.655.625 2.115 1.037 4.38 1.236V366h-17.098v-1.102c2.462-.2 3.996-.64 4.602-1.325.605-.686.908-2.32.908-4.9V331.27L215.72 366h-.835l-15.34-33.3v24.335c0 3.336.487 5.51 1.46 6.523.635.655 2.055 1.102 4.26 1.34V366h-14.327v-1.102zm80.777-14.565l-7.06-16.8-6.97 16.8h14.03zM245.385 366v-1.102c1.568-.18 2.745-.774 3.53-1.787.784-1.012 2.13-3.762 4.035-8.25l12.718-29.934h1.192l15.19 34.58c1.013 2.304 1.822 3.73 2.428 4.275.605.547 1.623.92 3.053 1.118V366h-15.517v-1.102c1.787-.16 2.938-.353 3.455-.58.516-.23.774-.79.774-1.684 0-.298-.1-.824-.298-1.578-.198-.755-.476-1.55-.834-2.383l-2.53-5.868h-15.966c-1.59 3.99-2.537 6.43-2.845 7.312-.308.884-.462 1.584-.462 2.1 0 1.033.417 1.748 1.25 2.145.517.238 1.49.417 2.92.536V366h-12.093zm47.09-12.27c1.033 2.74 2.244 4.923 3.634 6.55 2.42 2.84 5.43 4.26 9.024 4.26 1.946 0 3.63-.615 5.048-1.846 1.42-1.23 2.13-2.95 2.13-5.153 0-1.985-.715-3.712-2.145-5.182-.933-.933-2.9-2.333-5.897-4.2l-5.212-3.246c-1.57-.993-2.82-1.995-3.753-3.008-1.728-1.926-2.592-4.05-2.592-6.374 0-3.078 1.023-5.64 3.068-7.685 2.047-2.045 4.757-3.068 8.133-3.068 1.39 0 3.062.343 5.018 1.028 1.957.685 3.074 1.028 3.352 1.028.755 0 1.276-.18 1.564-.537.288-.357.51-.863.67-1.52h1.25l1.34 12.988h-1.458c-.993-3.912-2.586-6.642-4.78-8.19-2.195-1.55-4.364-2.324-6.51-2.324-1.667 0-3.12.49-4.362 1.474-1.24.983-1.862 2.348-1.862 4.095 0 1.568.477 2.908 1.43 4.02.953 1.132 2.432 2.314 4.438 3.545l5.36 3.306c3.357 2.066 5.72 3.962 7.09 5.69 1.35 1.747 2.026 3.812 2.026 6.195 0 3.197-1.207 5.868-3.62 8.012-2.412 2.145-5.495 3.217-9.248 3.217-1.886 0-3.857-.357-5.912-1.072-2.055-.715-3.232-1.072-3.53-1.072-.714 0-1.196.218-1.444.655-.248.437-.412.903-.492 1.4h-1.34l-1.817-12.986h1.4zm156.637 11.023c2.695-.292 4.38-.79 5.054-1.5.673-.706 1.01-2.554 1.01-5.54v-29.885c0-2.47-.376-4.077-1.128-4.818-.753-.74-2.398-1.202-4.936-1.382v-1.28h19.17v1.28c-2.538.18-4.19.64-4.952 1.382-.764.74-1.146 2.347-1.146 4.818v13.443h20.922V327.83c0-2.47-.37-4.077-1.11-4.818-.743-.74-2.393-1.202-4.954-1.382v-1.28h19.17v1.28c-2.538.18-4.183.64-4.935 1.382-.753.74-1.13 2.347-1.13 4.818v30.693c0 2.516.377 4.128 1.13 4.835.752.708 2.397 1.174 4.935 1.398V366h-19.17v-1.247c2.718-.27 4.408-.763 5.07-1.482.663-.718.994-2.57.994-5.558v-13.41h-20.922v14.22c0 2.514.382 4.13 1.146 4.85.763.72 2.414 1.18 4.952 1.38V366h-19.17v-1.247zm75.495-14.163l-6.943-16.524-6.856 16.524h13.8zm-25.9 15.41v-1.084c1.544-.176 2.702-.762 3.473-1.758.772-.996 2.095-3.7 3.97-8.115l12.51-29.443h1.172l14.94 34.013c.997 2.266 1.793 3.667 2.39 4.204.594.537 1.595.904 3.002 1.1V366H524.9v-1.084c1.758-.156 2.89-.347 3.398-.57.508-.226.762-.778.762-1.657 0-.294-.098-.81-.293-1.553-.195-.742-.47-1.524-.82-2.344l-2.49-5.772h-15.704c-1.562 3.927-2.495 6.325-2.797 7.194-.303.87-.455 1.557-.455 2.065 0 1.015.412 1.718 1.232 2.11.508.233 1.465.41 2.87.526V366H498.71zm63.634-21.885c3.185-1.308 4.777-3.77 4.777-7.383 0-3.476-1.426-5.85-4.278-7.12-1.524-.682-3.546-1.024-6.065-1.024-1.7 0-2.74.122-3.12.366-.38.244-.572.816-.572 1.714v14.795c4.317-.156 7.403-.606 9.258-1.348zm-20.507 20.8c2.305-.214 3.74-.663 4.307-1.347.567-.683.85-2.275.85-4.775v-25.986c0-2.11-.318-3.492-.952-4.146-.635-.653-2.037-1.068-4.205-1.244v-1.113h16.612c3.457 0 6.338.44 8.642 1.318 4.375 1.66 6.563 4.718 6.563 9.17 0 2.99-.972 5.284-2.915 6.886-1.944 1.6-4.585 2.656-7.925 3.164l12.363 15.205c.762.937 1.524 1.62 2.285 2.05.762.43 1.74.704 2.93.82V366h-9.668l-14.297-18.457-3.34.146v11.806c0 2.227.337 3.638 1.01 4.233.675.595 2.145.99 4.41 1.186V366h-16.67v-1.084zm56.28-38.612v1.113c-1.504.02-2.53.117-3.076.293-.957.31-1.436.946-1.436 1.903 0 .49.172 1.172.514 2.05.342.88.98 2.355 1.92 4.425l9.374 20.89 8.525-22.62c.37-.995.654-1.835.85-2.518.195-.684.293-1.24.293-1.67 0-1.152-.498-1.934-1.494-2.344-.586-.234-1.553-.37-2.9-.41v-1.113h12.275v1.025c-1.27.176-2.207.518-2.813 1.026-.918.76-1.826 2.294-2.725 4.6l-13.272 33.75h-.908l-14.795-32.99c-1.25-2.792-2.25-4.53-3.003-5.214-.752-.684-1.85-1.074-3.296-1.172v-1.025h15.967zm27.363 38.613c2.44-.176 4.024-.542 4.746-1.1.723-.555 1.084-1.996 1.084-4.32v-26.69c0-2.206-.36-3.627-1.084-4.262-.722-.635-2.305-1.01-4.746-1.128v-1.113h17.754v1.113c-2.44.117-4.023.493-4.746 1.128-.723.635-1.084 2.056-1.084 4.263v26.69c0 2.323.36 3.764 1.084 4.32.723.557 2.305.923 4.746 1.1V366h-17.754v-1.084zm19.688 0c2.48-.254 4.072-.815 4.775-1.685.702-.868 1.054-2.884 1.054-6.048v-26.455l-.82-.967c-.88-1.035-1.627-1.675-2.242-1.92-.615-.243-1.538-.385-2.768-.424v-1.113h10.283l23.115 28.886v-20.07c0-3.3-.488-5.448-1.465-6.444-.644-.645-2.07-1.065-4.277-1.26v-1.113h14.092v1.113c-2.286.234-3.81.79-4.57 1.67-.762.88-1.143 2.89-1.143 6.035v31.583h-1.027l-26.543-32.9v23.38c0 3.28.48 5.42 1.436 6.415.625.644 2.02 1.084 4.19 1.318V366h-14.092v-1.084zm55.708-1.61c.478.31 1.47.467 2.973.467 4.688 0 8.545-.927 11.572-2.783 4.65-2.85 6.973-7.724 6.973-14.62 0-6.15-1.914-10.78-5.742-13.886-3.28-2.656-7.627-3.984-13.037-3.984-1.347 0-2.26.146-2.738.44-.48.292-.718.937-.718 1.933v30.498c0 .978.24 1.622.718 1.935zm-12.085 1.61c2.187-.234 3.613-.63 4.277-1.187.664-.557.996-1.968.996-4.234v-26.69c0-2.187-.322-3.593-.967-4.218-.644-.625-2.08-1.016-4.306-1.172v-1.113h16.17c5.45 0 10.06.898 13.83 2.695 6.797 3.223 10.195 8.984 10.195 17.285 0 2.988-.61 5.83-1.83 8.526-1.222 2.694-3.063 4.97-5.524 6.825-1.562 1.172-3.183 2.06-4.863 2.666-3.066 1.134-6.836 1.7-11.308 1.7h-16.67v-1.084zm43.037 0c2.207-.234 3.637-.63 4.292-1.187.654-.557.98-1.968.98-4.234v-26.69c0-2.128-.32-3.52-.966-4.174-.644-.654-2.08-1.06-4.306-1.216v-1.113H763.7l.204 8.613h-1.524c-.507-2.656-1.27-4.375-2.285-5.156-1.015-.78-3.28-1.172-6.797-1.172h-8.144c-.88 0-1.42.14-1.626.425-.205.283-.308.815-.308 1.596v13.388h9.23c2.557 0 4.188-.38 4.89-1.143.704-.76 1.27-2.304 1.7-4.628h1.407v13.886h-1.406c-.45-2.324-1.025-3.862-1.728-4.614-.703-.753-2.324-1.13-4.863-1.13h-9.23v14.855c0 1.19.376 1.894 1.128 2.11.752.214 3.003.32 6.753.32 4.064 0 7.062-.443 8.995-1.332 1.934-.888 3.672-3.042 5.215-6.46h1.67L764.255 366h-32.43v-1.084zm57.158-20.8c3.184-1.31 4.775-3.77 4.775-7.384 0-3.476-1.425-5.85-4.277-7.12-1.523-.682-3.545-1.024-6.064-1.024-1.7 0-2.74.122-3.12.366-.38.244-.572.816-.572 1.714v14.795c4.317-.156 7.402-.606 9.258-1.348zm-20.508 20.8c2.305-.215 3.74-.664 4.307-1.348.567-.683.85-2.275.85-4.775v-25.986c0-2.11-.317-3.492-.952-4.146-.635-.653-2.036-1.068-4.204-1.244v-1.113h16.61c3.458 0 6.34.44 8.644 1.318 4.375 1.66 6.563 4.718 6.563 9.17 0 2.99-.97 5.284-2.915 6.886-1.943 1.6-4.584 2.656-7.924 3.164l12.364 15.205c.762.937 1.523 1.62 2.285 2.05.76.43 1.737.704 2.93.82V366h-9.67l-14.296-18.457-3.34.146v11.806c0 2.227.337 3.638 1.01 4.233.675.595 2.144.99 4.41 1.186V366h-16.67v-1.084zm-383.85-34.54c2.432-2.322 3.648-4.89 3.648-7.7 0-2.106-.615-3.808-1.844-5.105-1.23-1.296-2.79-1.945-4.68-1.945-2.054 0-3.642.662-4.763 1.986-1.12 1.325-1.682 3.08-1.682 5.27 0 1.702.304 3.546.912 5.532.608 1.986 1.398 4.032 2.37 6.14 2.676-1.486 4.69-2.878 6.04-4.175zm-5.31 34.085c2.163-.864 4.23-2.228 6.202-4.092-2.54-3.243-4.52-5.97-5.937-8.187-1.42-2.214-3.642-6.078-6.668-11.59-2.783 1.648-4.917 3.297-6.403 4.945-2.27 2.54-3.406 5.484-3.406 8.835 0 3.08 1 5.748 3 8.004 2 2.256 4.566 3.384 7.7 3.384 1.513 0 3.35-.432 5.51-1.297zm-7.658-26.747c-.35-.73-.757-1.73-1.216-3-.46-1.27-.784-2.296-.973-3.08-.216-.864-.39-1.735-.527-2.613-.135-.878-.202-1.736-.202-2.574 0-3.89 1.19-7.12 3.566-9.686 2.378-2.566 5.39-3.85 9.038-3.85 3.323 0 6.052.905 8.186 2.715 2.135 1.81 3.202 4.242 3.202 7.295 0 3.567-1.364 6.485-4.093 8.754-2.73 2.27-5.66 4.094-8.795 5.472 2.378 4.322 4.127 7.375 5.25 9.16 1.12 1.782 3.018 4.416 5.693 7.902 2.864-3.513 4.85-6.512 5.957-8.998 1.108-2.485 1.662-4.47 1.662-5.957 0-1.513-.554-2.553-1.662-3.12-.702-.352-1.918-.595-3.647-.73v-1.743h17.872v1.743c-1.81.216-3.16.54-4.052.972-1.46.73-2.702 2.04-3.73 3.932l-2.106 3.85c-1.514 2.756-2.778 4.863-3.79 6.322-1.014 1.458-2.534 3.47-4.56 6.038 1.08 1.27 2.31 2.553 3.688 3.85 3 2.566 5.998 3.85 8.997 3.85 1.783 0 3.296-.433 4.54-1.297.756-.54 1.77-1.58 3.04-3.12l1.214.973c-.163.648-.73 1.668-1.703 3.06-.972 1.39-1.904 2.48-2.796 3.262-1.404 1.243-3.04 2.12-4.903 2.634-1.108.324-2.188.486-3.242.486-2.62 0-5.215-.824-7.78-2.472-1.54-.973-3.595-2.69-6.16-5.147-2.433 2.242-4.892 3.958-7.377 5.147-3.243 1.62-6.81 2.43-10.7 2.43-4.323 0-7.774-1.154-10.354-3.464-2.58-2.31-3.87-5.464-3.87-9.463 0-3.755 1.154-7.058 3.464-9.91 2.31-2.85 5.546-5.45 9.707-7.8l3.16-1.824zM441.602 270C306.902 270 38 276 38 276s269.488 6 404.48 6c129.342 0 388.52-6 388.52-6s-259.765-6-389.398-6zM441.602 407C306.902 407 38 413 38 413s269.488 6 404.48 6c129.342 0 388.52-6 388.52-6s-259.765-6-389.398-6zM391.09 213.564c-1.015.553-2.036 1.092-3.062 1.618-7.452 3.82-15.65 5.73-24.593 5.73-4.657 0-8.99-.607-12.995-1.818-4.005-1.21-7.452-3.074-10.34-5.59-2.888-2.514-5.077-5.635-6.567-9.36-1.49-3.727-2.05-8.106-1.677-13.136-4.1-.186-8.29-.838-12.576-1.956-4.285-1.118-8.15-2.795-11.597-5.03-3.447-2.236-6.242-5.077-8.384-8.524-2.144-3.447-3.215-7.685-3.215-12.716 0-6.334 1.816-12.063 5.45-17.186 3.633-5.124 8.197-9.456 13.693-12.995 5.496-3.54 11.41-6.24 17.746-8.104 6.335-1.863 12.203-2.795 17.606-2.795 5.03 0 10.06.56 15.09 1.678 2.61-7.638 7.08-14.16 13.415-19.562 6.335-5.403 13.694-8.104 22.078-8.104 4.285 0 8.104.605 11.458 1.816 3.354 1.21 6.522 2.795 9.502 4.75 2.98 1.957 5.776 4.24 8.384 6.848 2.61 2.608 5.31 5.31 8.105 8.104 6.335-5.03 12.856-9.176 19.563-12.436 6.707-3.26 14.253-4.89 22.637-4.89 7.824 0 14.718 1.676 20.68 5.03 5.962 3.353 10.526 8.663 13.693 15.93 2.98-.932 5.916-1.538 8.803-1.817 2.888-.28 5.73-.42 8.524-.42 5.403 0 10.806.746 16.21 2.236 5.402 1.49 10.2 3.726 14.39 6.707 4.193 2.98 7.593 6.754 10.202 11.318 2.608 4.565 3.912 9.828 3.912 15.79 0 8.943-2.795 16.488-8.384 22.636-5.59 6.15-12.482 10.34-20.68 12.576-1.304 4.844-3.26 9.502-5.87 13.973-2.607 4.472-5.774 8.43-9.5 11.878-3.727 3.447-7.872 6.195-12.437 8.245-4.564 2.05-9.548 3.074-14.95 3.074-1.512 0-2.984-.065-4.417-.193 5.13 1.845 11.87 2.767 20.217 2.767 8.31 0 16.825-.907 25.544-2.72 8.72-1.815 17.497-4.097 26.333-6.848 8.836-2.75 17.643-5.734 26.42-8.953 8.78-3.218 17.352-6.203 25.72-8.953 8.368-2.75 16.473-5.033 24.315-6.847 7.84-1.814 15.214-2.72 22.12-2.72 3.043 0 6.203.38 9.48 1.14 3.277.76 6.29 1.93 9.04 3.51 2.75 1.58 5.033 3.63 6.847 6.146 1.814 2.515 2.72 5.587 2.72 9.215 0 3.63-1.08 6.876-3.246 9.744-2.165 2.866-4.857 5.412-8.076 7.635-3.218 2.224-6.7 4.214-10.445 5.97-3.746 1.755-7.198 3.335-10.358 4.74-.936 0-1.463-.09-1.58-.264-.117-.175 0-.35.35-.526.352-.175.79-.38 1.318-.614.526-.234.907-.41 1.14-.527 2.107-1.053 4.8-2.37 8.076-3.95 3.278-1.58 6.41-3.394 9.393-5.442 2.985-2.047 5.56-4.36 7.725-6.934s3.248-5.325 3.248-8.25c0-3.746-1.64-6.438-4.916-8.076-3.277-1.64-8.778-2.458-16.502-2.458-7.96 0-16.473.702-25.543 2.107-9.07 1.403-18.287 3.13-27.65 5.178s-18.726 4.27-28.09 6.67c-9.362 2.4-18.433 4.624-27.21 6.672-8.778 2.048-17.06 3.774-24.842 5.18-7.783 1.403-14.775 2.105-20.978 2.105-12.442 0-21.526-1.942-27.254-5.827-.592-.152-1.176-.317-1.753-.496-3.913-1.21-7.592-2.794-11.04-4.75-3.446-1.957-6.706-4.286-9.78-6.987-3.074-2.702-6.195-5.543-9.362-8.524v.28c-3.167 2.61-5.962 5.31-8.384 8.105-2.048 2.422-3.958 4.984-5.728 7.685-1.77 2.702-2.655 5.17-2.655 7.406 0 .932.14 2.096.42 3.493.28 1.397.698 2.794 1.257 4.19.56 1.4 1.164 2.656 1.817 3.774.653 1.118 1.35 1.956 2.097 2.515.93.372 1.164.884.698 1.536-.466.652-.978.7-1.537.14-1.118-.56-2.515-1.164-4.192-1.817s-3.4-1.305-5.17-1.957c-1.77-.652-3.307-1.304-4.61-1.956-1.305-.652-2.05-1.444-2.237-2.375-.187-.56-.234-1.21-.14-1.957.093-.745.046-1.397-.14-1.956-.56-4.472-1.49-8.245-2.795-11.32-1.304-3.073-2.934-5.728-4.89-7.964-1.957-2.236-4.332-4.192-7.127-5.87-2.794-1.675-5.96-3.445-9.5-5.308-5.22 3.95-10.598 7.497-16.136 10.645-2.183 10.667-13.58 16-34.197 16-6.203 0-13.196-.702-20.98-2.107-7.782-1.404-16.062-3.13-24.84-5.18-8.778-2.047-17.848-4.27-27.21-6.67-9.364-2.4-18.727-4.623-28.09-6.67-9.363-2.05-18.58-3.775-27.65-5.18-9.07-1.404-17.584-2.106-25.543-2.106-7.725 0-13.225.82-16.502 2.457-3.277 1.64-4.916 4.33-4.916 8.076 0 2.926 1.083 5.676 3.248 8.25 2.165 2.576 4.74 4.887 7.724 6.936 2.985 2.047 6.116 3.86 9.393 5.44 3.276 1.58 5.967 2.897 8.074 3.95.234.118.615.293 1.14.527.528.235.967.44 1.318.615.35.175.468.35.35.527-.116.174-.643.262-1.58.262-3.16-1.405-6.612-2.985-10.357-4.74-3.745-1.756-7.227-3.745-10.445-5.97-3.22-2.223-5.91-4.768-8.076-7.636-2.165-2.867-3.248-6.115-3.248-9.743s.907-6.7 2.722-9.217c1.814-2.516 4.096-4.564 6.846-6.144s5.764-2.75 9.04-3.51c3.278-.762 6.438-1.142 9.48-1.142 6.906 0 14.28.907 22.12 2.72 7.843 1.815 15.948 4.097 24.316 6.847 8.368 2.75 16.94 5.735 25.72 8.954 8.776 3.22 17.583 6.204 26.42 8.954 8.836 2.75 17.614 5.033 26.333 6.847 8.72 1.815 17.234 2.722 25.543 2.722 17.942 0 28.45-4.26 31.524-12.778zM374.614 174.8c-4.472-6.522-7.732-13.834-9.78-21.938-2.05-8.105-2.237-16.07-.56-23.894-6.707-2.05-13.228-3.075-19.563-3.075-4.656 0-9.407.652-14.25 1.957-4.845 1.304-9.223 3.26-13.136 5.868-3.912 2.61-7.126 5.87-9.64 9.782-2.517 3.912-3.774 8.57-3.774 13.973 0 8.197 2.748 14.997 8.244 20.4 5.496 5.403 12.157 8.664 19.982 9.782.372-2.05.885-4.1 1.537-6.15.652-2.048 1.444-4.284 2.375-6.706.373-1.12.978-1.49 1.817-1.12.838.374.79 1.026-.14 1.958-.932 1.118-1.444 3.074-1.537 5.868-.093 2.795-.047 4.938.14 6.428 7.08.373 13.88-.7 20.4-3.214 6.52-2.515 12.483-5.822 17.886-9.92zm85.515 27.946c-3.913-3.727-7.872-7.546-11.878-11.458-4.005-3.913-8.058-7.825-12.156-11.738-3.727 3.167-7.5 6.38-11.32 9.642-3.818 3.26-7.684 6.474-11.596 9.64 2.98 2.05 5.73 4.007 8.244 5.87 2.515 1.863 4.75 3.96 6.707 6.288 1.957 2.33 3.54 4.937 4.752 7.825 1.21 2.887 1.91 6.38 2.096 10.48.372-1.677 1.024-3.308 1.956-4.89.93-1.585 2.375-3.355 4.332-5.31 1.956-1.957 4.47-4.24 7.545-6.848 3.075-2.608 6.848-5.775 11.32-9.5zm-25.99-24.873c-4.845-4.657-9.642-9.222-14.393-13.693-4.75-4.472-9.735-8.757-14.95-12.856-4.286 3.913-8.106 7.453-11.46 10.62-3.353 3.167-6.706 6.148-10.06 8.943 3.726 5.03 8.01 9.734 12.855 14.113 4.844 4.378 9.782 8.43 14.812 12.156 3.726-2.98 7.545-6.1 11.458-9.362 3.912-3.26 7.825-6.567 11.737-9.92zm-31.3-28.225c-5.217-4.1-10.667-7.78-16.35-11.04-5.68-3.26-11.69-6.007-18.024-8.243 0 7.08 1.21 13.833 3.633 20.26 2.42 6.428 5.68 12.53 9.78 18.306 3.726-3.167 7.266-6.38 10.62-9.64 3.353-3.26 6.8-6.475 10.34-9.642zm29.902-27.388c-5.776-4.844-11.69-9.13-17.746-12.855-6.055-3.726-13.088-5.59-21.1-5.59-6.706 0-12.25 1.724-16.627 5.17-4.38 3.448-7.128 8.43-8.245 14.952 7.266 1.863 14.112 4.61 20.54 8.244 6.428 3.634 12.622 7.78 18.584 12.437 4.098-3.726 8.15-7.452 12.156-11.178 4.006-3.727 8.15-7.453 12.436-11.18zm32.697 28.785c-5.03-4.285-10.155-8.803-15.37-13.554-5.218-4.75-10.34-9.268-15.372-13.553-4.285 3.54-8.43 7.22-12.436 11.04-4.005 3.818-8.058 7.59-12.156 11.317 5.216 4.285 10.293 8.663 15.23 13.135 4.937 4.47 9.828 8.942 14.672 13.413 4.285-3.726 8.524-7.406 12.716-11.04 4.192-3.632 8.43-7.218 12.715-10.758zm28.225 22.916c-4.658-3.353-9.176-6.846-13.554-10.48-4.377-3.632-8.71-7.31-12.994-11.038-4.285 3.54-8.524 7.173-12.716 10.9-4.192 3.726-8.43 7.452-12.715 11.178 4.285 3.912 8.523 7.778 12.715 11.598 4.192 3.82 8.43 7.498 12.716 11.038 4.658-3.726 9.176-7.452 13.554-11.178 4.378-3.726 8.71-7.732 12.995-12.017zm51.98 16.49c-2.98.558-5.962.838-8.943.838-7.266 0-14.392-1.63-21.38-4.89-6.985-3.26-13.46-6.94-19.422-11.04-4.285 4.1-8.663 8.058-13.134 11.877-4.472 3.82-8.943 7.686-13.414 11.598 5.775 4.844 12.063 9.176 18.863 12.995 6.8 3.82 14.113 5.73 21.938 5.73 8.757 0 16.21-2.47 22.357-7.407 6.148-4.936 10.526-11.503 13.135-19.7zm-33.815-47.79c0-5.402-1.49-10.898-4.472-16.487-5.96 2.608-12.016 5.915-18.165 9.92-6.148 4.006-12.016 8.245-17.606 12.716 4.285 3.726 8.524 7.358 12.716 10.898s8.71 6.894 13.554 10.06c3.912-4.284 7.22-8.383 9.92-12.295 2.702-3.913 4.053-8.85 4.053-14.812zm-5.59-18.443c-3.726-5.962-8.383-10.62-13.973-13.973-5.59-3.354-11.923-5.03-19.003-5.03-6.52 0-12.343 1.397-17.466 4.19-5.124 2.796-10.2 6.056-15.23 9.782 4.843 4.844 9.734 9.642 14.67 14.393 4.938 4.75 9.828 9.267 14.672 13.553 6.335-4.844 12.483-9.223 18.445-13.135 5.962-3.913 11.924-7.173 17.886-9.78zm65.954 26.55c0-5.218-1.258-9.69-3.773-13.416-2.514-3.725-5.68-6.8-9.5-9.22-3.82-2.423-8.105-4.24-12.856-5.45-4.75-1.21-9.362-1.817-13.833-1.817-5.216 0-10.62.745-16.208 2.236.56 1.862 1.024 3.678 1.397 5.448.372 1.77.558 3.587.558 5.45 0 7.638-1.723 14.392-5.17 20.26-3.447 5.87-7.685 11.505-12.716 16.908 5.403 3.168 10.9 5.683 16.49 7.546 5.588 1.863 11.55 2.794 17.884 2.794 3.54 0 7.453-.465 11.738-1.397-.56-2.982-1.863-5.497-3.913-7.546-.558-.56-1.35-1.165-2.374-1.817-1.025-.652-2.05-1.257-3.074-1.816-1.025-.558-1.91-1.07-2.655-1.536-.745-.466-1.118-.792-1.118-.98 0-.744.65-1.815 1.955-3.212 1.304-1.398 2.236-2.096 2.795-2.096.93 0 1.956.42 3.074 1.257 1.118.84 2.142 1.863 3.074 3.074.932 1.21 1.77 2.422 2.515 3.633.745 1.21 1.21 2.19 1.397 2.935.932 2.794 1.398 5.216 1.398 7.266 6.707-2.05 12.203-5.45 16.488-10.2 4.285-4.75 6.428-10.852 6.428-18.304zM406.752 200.23c-5.962-3.167-11.504-6.474-16.628-9.92-5.123-3.447-9.828-7.965-14.113-13.554-5.588 4.285-11.736 7.685-18.443 10.2-6.707 2.515-13.6 3.866-20.68 4.052 1.863 7.825 6.1 13.74 12.715 17.746 6.614 4.006 13.74 6.008 21.38 6.008 6.892 0 13.227-1.443 19.002-4.33 5.776-2.89 11.365-6.29 16.768-10.202zM449.8 48.96c0 .533-.213 1.253-.64 2.16-.427.907-.987 1.787-1.68 2.64-.693.853-1.467 1.573-2.32 2.16-.853.587-1.707.88-2.56.88-.747 0-1.413-.213-2-.64-.587-.427-.88-1.067-.88-1.92 0-2.133.72-4 2.16-5.6 1.44-1.6 3.067-2.4 4.88-2.4.533 0 1.173.187 1.92.56.747.373 1.12 1.093 1.12 2.16zM391.09 481.928c-1.015-.553-2.036-1.092-3.062-1.618-7.452-3.82-15.65-5.73-24.593-5.73-4.657 0-8.99.607-12.995 1.818-4.005 1.21-7.452 3.074-10.34 5.59-2.888 2.514-5.077 5.635-6.567 9.36-1.49 3.727-2.05 8.106-1.677 13.136-4.1.186-8.29.838-12.576 1.956-4.285 1.118-8.15 2.795-11.597 5.03-3.447 2.236-6.242 5.077-8.384 8.524-2.144 3.447-3.215 7.685-3.215 12.716 0 6.334 1.816 12.063 5.45 17.186 3.633 5.124 8.197 9.456 13.693 12.995 5.496 3.54 11.41 6.243 17.746 8.106 6.335 1.863 12.203 2.795 17.606 2.795 5.03 0 10.06-.558 15.09-1.676 2.61 7.638 7.08 14.16 13.415 19.562 6.335 5.403 13.694 8.104 22.078 8.104 4.285 0 8.104-.605 11.458-1.816 3.354-1.21 6.522-2.795 9.502-4.75 2.98-1.957 5.776-4.24 8.384-6.848 2.61-2.608 5.31-5.31 8.105-8.104 6.335 5.03 12.856 9.176 19.563 12.436 6.707 3.26 14.253 4.89 22.637 4.89 7.824 0 14.718-1.676 20.68-5.03 5.962-3.353 10.526-8.663 13.693-15.93 2.98.932 5.916 1.538 8.803 1.817 2.888.28 5.73.42 8.524.42 5.403 0 10.806-.746 16.21-2.236 5.402-1.492 10.2-3.727 14.39-6.708 4.193-2.98 7.593-6.754 10.202-11.318 2.608-4.565 3.912-9.828 3.912-15.79 0-8.943-2.795-16.488-8.384-22.636-5.59-6.15-12.482-10.34-20.68-12.576-1.304-4.844-3.26-9.502-5.87-13.973-2.607-4.473-5.774-8.432-9.5-11.88-3.727-3.445-7.872-6.193-12.437-8.243-4.564-2.05-9.548-3.074-14.95-3.074-1.512 0-2.984.064-4.417.192 5.13-1.845 11.87-2.767 20.217-2.767 8.31 0 16.825.907 25.544 2.72 8.72 1.815 17.497 4.097 26.333 6.848 8.836 2.75 17.643 5.734 26.42 8.953 8.78 3.217 17.352 6.202 25.72 8.952 8.368 2.75 16.473 5.033 24.315 6.847 7.84 1.813 15.214 2.72 22.12 2.72 3.043 0 6.203-.38 9.48-1.14 3.277-.762 6.29-1.932 9.04-3.512 2.75-1.58 5.033-3.628 6.847-6.145 1.814-2.516 2.72-5.588 2.72-9.216 0-3.63-1.08-6.876-3.246-9.744-2.165-2.867-4.857-5.413-8.076-7.636-3.218-2.224-6.7-4.214-10.445-5.97-3.746-1.755-7.198-3.335-10.358-4.74-.936 0-1.463.09-1.58.264-.117.177 0 .352.35.528.352.175.79.38 1.318.614.526.234.907.41 1.14.527 2.107 1.052 4.8 2.37 8.076 3.95 3.278 1.58 6.41 3.393 9.393 5.44 2.985 2.05 5.56 4.36 7.725 6.936 2.165 2.574 3.248 5.325 3.248 8.25 0 3.746-1.64 6.438-4.916 8.076-3.277 1.64-8.778 2.458-16.502 2.458-7.96 0-16.473-.702-25.543-2.107-9.07-1.404-18.287-3.13-27.65-5.18-9.363-2.047-18.726-4.27-28.09-6.67-9.362-2.4-18.433-4.623-27.21-6.67-8.778-2.05-17.06-3.775-24.842-5.18-7.783-1.404-14.775-2.106-20.978-2.106-12.442 0-21.526 1.942-27.254 5.827-.592.152-1.176.317-1.753.496-3.913 1.21-7.592 2.794-11.04 4.75-3.446 1.957-6.706 4.286-9.78 6.987-3.074 2.702-6.195 5.543-9.362 8.524v-.28c-3.167-2.607-5.962-5.308-8.384-8.103-2.048-2.422-3.958-4.984-5.728-7.685-1.77-2.702-2.655-5.17-2.655-7.406 0-.932.14-2.096.42-3.493.28-1.398.698-2.795 1.257-4.192.56-1.397 1.164-2.654 1.817-3.772.653-1.118 1.35-1.956 2.097-2.515.93-.373 1.164-.885.698-1.537-.466-.652-.978-.7-1.537-.14-1.118.56-2.515 1.164-4.192 1.817-1.677.652-3.4 1.304-5.17 1.956-1.77.65-3.307 1.303-4.61 1.955-1.305.652-2.05 1.444-2.237 2.375-.187.56-.234 1.21-.14 1.957.093.745.046 1.397-.14 1.956-.56 4.47-1.49 8.244-2.795 11.318-1.304 3.075-2.934 5.73-4.89 7.966-1.957 2.236-4.332 4.192-7.127 5.87-2.794 1.675-5.96 3.445-9.5 5.308-5.22-3.95-10.598-7.497-16.136-10.645-2.183-10.668-13.58-16-34.197-16-6.203 0-13.196.7-20.98 2.106-7.782 1.404-16.062 3.13-24.84 5.18-8.778 2.047-17.848 4.27-27.21 6.67-9.364 2.4-18.727 4.623-28.09 6.67-9.363 2.05-18.58 3.775-27.65 5.18-9.07 1.404-17.584 2.106-25.543 2.106-7.725 0-13.225-.82-16.502-2.457-3.277-1.64-4.916-4.33-4.916-8.076 0-2.927 1.083-5.677 3.248-8.252 2.165-2.575 4.74-4.886 7.724-6.935 2.985-2.048 6.116-3.862 9.393-5.442 3.276-1.58 5.967-2.895 8.074-3.95.234-.116.615-.29 1.14-.525.528-.235.967-.44 1.318-.615.35-.175.468-.35.35-.527-.116-.175-.643-.263-1.58-.263-3.16 1.405-6.612 2.985-10.357 4.74-3.745 1.756-7.227 3.745-10.445 5.97-3.22 2.223-5.91 4.768-8.076 7.636-2.165 2.867-3.248 6.115-3.248 9.743 0 3.627.907 6.7 2.722 9.216 1.814 2.516 4.096 4.564 6.846 6.144s5.764 2.75 9.04 3.51c3.278.762 6.438 1.142 9.48 1.142 6.906 0 14.28-.907 22.12-2.72 7.843-1.815 15.948-4.097 24.316-6.847 8.368-2.75 16.94-5.735 25.72-8.954 8.776-3.217 17.583-6.202 26.42-8.952 8.836-2.75 17.614-5.033 26.333-6.847 8.72-1.813 17.234-2.72 25.543-2.72 17.942 0 28.45 4.26 31.524 12.778zm-16.476 38.765c-4.472 6.52-7.732 13.833-9.78 21.937-2.05 8.105-2.237 16.07-.56 23.894-6.707 2.05-13.228 3.075-19.563 3.075-4.656 0-9.407-.653-14.25-1.958-4.845-1.304-9.223-3.26-13.136-5.868-3.912-2.61-7.126-5.87-9.64-9.782-2.517-3.912-3.774-8.57-3.774-13.973 0-8.198 2.748-14.998 8.244-20.4 5.496-5.404 12.157-8.665 19.982-9.783.372 2.05.885 4.1 1.537 6.15.652 2.048 1.444 4.284 2.375 6.706.373 1.118.978 1.49 1.817 1.118.838-.372.79-1.024-.14-1.956-.932-1.118-1.444-3.074-1.537-5.868-.093-2.795-.047-4.938.14-6.428 7.08-.373 13.88.7 20.4 3.214 6.52 2.515 12.483 5.822 17.886 9.92zm85.515-27.947c-3.913 3.727-7.872 7.546-11.878 11.458-4.005 3.913-8.058 7.825-12.156 11.738-3.727-3.167-7.5-6.38-11.32-9.642-3.818-3.26-7.684-6.474-11.596-9.64 2.98-2.05 5.73-4.007 8.244-5.87 2.515-1.863 4.75-3.96 6.707-6.288 1.957-2.33 3.54-4.937 4.752-7.825 1.21-2.887 1.91-6.38 2.096-10.48.372 1.677 1.024 3.308 1.956 4.89.93 1.585 2.375 3.355 4.332 5.31 1.956 1.957 4.47 4.24 7.545 6.848 3.075 2.608 6.848 5.775 11.32 9.5zm-25.99 24.873c-4.845 4.656-9.642 9.22-14.393 13.692-4.75 4.472-9.735 8.757-14.95 12.856-4.286-3.913-8.106-7.453-11.46-10.62-3.353-3.167-6.706-6.148-10.06-8.943 3.726-5.03 8.01-9.734 12.855-14.113 4.844-4.378 9.782-8.43 14.812-12.156 3.726 2.98 7.545 6.1 11.458 9.362 3.912 3.26 7.825 6.567 11.737 9.92zm-31.3 28.224c-5.217 4.1-10.667 7.78-16.35 11.04-5.68 3.26-11.69 6.007-18.024 8.243 0-7.08 1.21-13.833 3.633-20.26 2.42-6.428 5.68-12.53 9.78-18.306 3.726 3.17 7.266 6.382 10.62 9.643 3.353 3.26 6.8 6.474 10.34 9.64zm29.902 27.388c-5.776 4.844-11.69 9.13-17.746 12.855-6.055 3.726-13.088 5.59-21.1 5.59-6.706 0-12.25-1.724-16.627-5.17-4.38-3.448-7.128-8.43-8.245-14.952 7.266-1.863 14.112-4.61 20.54-8.244 6.428-3.632 12.622-7.778 18.584-12.435 4.098 3.726 8.15 7.452 12.156 11.178 4.006 3.726 8.15 7.452 12.436 11.18zm32.697-28.785c-5.03 4.285-10.155 8.803-15.37 13.554-5.218 4.752-10.34 9.27-15.372 13.555-4.285-3.54-8.43-7.22-12.436-11.04-4.005-3.818-8.058-7.59-12.156-11.317 5.216-4.285 10.293-8.663 15.23-13.135 4.937-4.47 9.828-8.943 14.672-13.414 4.285 3.725 8.524 7.405 12.716 11.038s8.43 7.22 12.715 10.76zm28.225-22.916c-4.658 3.355-9.176 6.848-13.554 10.48-4.377 3.634-8.71 7.313-12.994 11.04-4.285-3.54-8.524-7.173-12.716-10.9-4.192-3.726-8.43-7.452-12.715-11.178 4.285-3.912 8.523-7.778 12.715-11.598 4.192-3.82 8.43-7.498 12.716-11.038 4.658 3.726 9.176 7.452 13.554 11.178 4.378 3.726 8.71 7.732 12.995 12.017zm51.98-16.487c-2.98-.56-5.962-.84-8.943-.84-7.266 0-14.392 1.632-21.38 4.892-6.985 3.26-13.46 6.94-19.422 11.04-4.285-4.1-8.663-8.06-13.134-11.878-4.472-3.82-8.943-7.686-13.414-11.598 5.775-4.845 12.063-9.177 18.863-12.996 6.8-3.82 14.113-5.73 21.938-5.73 8.757 0 16.21 2.47 22.357 7.407 6.148 4.938 10.526 11.505 13.135 19.703zM511.83 552.83c0 5.404-1.49 10.9-4.472 16.49-5.96-2.61-12.016-5.916-18.165-9.922-6.148-4.005-12.016-8.244-17.606-12.715 4.285-3.727 8.524-7.36 12.716-10.9s8.71-6.893 13.554-10.06c3.912 4.285 7.22 8.384 9.92 12.296 2.702 3.912 4.053 8.85 4.053 14.81zm-5.59 18.445c-3.726 5.962-8.383 10.62-13.973 13.973-5.59 3.354-11.923 5.03-19.003 5.03-6.52 0-12.343-1.397-17.466-4.19-5.124-2.796-10.2-6.056-15.23-9.782 4.843-4.844 9.734-9.642 14.67-14.393 4.938-4.75 9.828-9.268 14.672-13.554 6.335 4.843 12.483 9.222 18.445 13.134 5.962 3.913 11.924 7.173 17.886 9.78zm65.954-26.55c0 5.218-1.258 9.69-3.773 13.416-2.514 3.727-5.68 6.8-9.5 9.223-3.82 2.422-8.105 4.238-12.856 5.45-4.75 1.21-9.362 1.816-13.833 1.816-5.216 0-10.62-.746-16.208-2.237.56-1.863 1.024-3.68 1.397-5.45.372-1.77.558-3.586.558-5.45 0-7.637-1.723-14.39-5.17-20.26-3.447-5.87-7.685-11.504-12.716-16.907 5.403-3.168 10.9-5.683 16.49-7.546 5.588-1.863 11.55-2.794 17.884-2.794 3.54 0 7.453.465 11.738 1.397-.56 2.98-1.863 5.496-3.913 7.545-.558.56-1.35 1.165-2.374 1.817-1.025.652-2.05 1.257-3.074 1.816-1.025.56-1.91 1.073-2.655 1.538-.745.466-1.118.792-1.118.98 0 .744.65 1.815 1.955 3.212 1.304 1.398 2.236 2.096 2.795 2.096.93 0 1.956-.42 3.074-1.257 1.118-.84 2.142-1.864 3.074-3.075.932-1.21 1.77-2.422 2.515-3.633.745-1.21 1.21-2.19 1.397-2.935.932-2.794 1.398-5.216 1.398-7.266 6.707 2.05 12.203 5.45 16.488 10.202 4.285 4.75 6.428 10.852 6.428 18.304zm-165.442-49.463c-5.962 3.167-11.504 6.474-16.628 9.92-5.123 3.447-9.828 7.965-14.113 13.554-5.588-4.285-11.736-7.685-18.443-10.2-6.707-2.515-13.6-3.866-20.68-4.052 1.863-7.825 6.1-13.74 12.715-17.746 6.614-4.006 13.74-6.008 21.38-6.008 6.892 0 13.227 1.443 19.002 4.33 5.776 2.89 11.365 6.29 16.768 10.202zm43.048 151.27c0-.533-.213-1.253-.64-2.16-.427-.907-.987-1.787-1.68-2.64-.693-.853-1.467-1.573-2.32-2.16-.853-.587-1.707-.88-2.56-.88-.747 0-1.413.213-2 .64-.587.427-.88 1.067-.88 1.92 0 2.133.72 4 2.16 5.6 1.44 1.6 3.067 2.4 4.88 2.4.533 0 1.173-.187 1.92-.56.747-.373 1.12-1.093 1.12-2.16z"/></g></symbol><symbol id="emblem" viewBox="0 0 875 698"><title>emblem</title><g fill="#961C00" fill-rule="evenodd"><path d="M61.348 320.348h38.98l.37 11.725h-1.65c-.808-3.684-1.836-6.082-3.082-7.193-1.247-1.112-3.87-1.668-7.867-1.668h-3.842v35.31c0 2.67.415 4.328 1.246 4.968.83.64 2.65 1.06 5.458 1.263V366H70.85v-1.247c2.92-.224 4.738-.707 5.457-1.448.718-.742 1.078-2.606 1.078-5.593v-34.5h-3.84c-3.82 0-6.42.55-7.8 1.65-1.382 1.1-2.42 3.505-3.117 7.21h-1.685l.405-11.724zm41.783 44.55c2.384-.258 3.873-.7 4.47-1.325.594-.626.892-2.26.892-4.9v-26.42c0-2.184-.332-3.604-.998-4.26-.665-.654-2.12-1.06-4.363-1.22v-1.132h16.95v1.133c-2.245.16-3.705.566-4.38 1.22-.675.656-1.013 2.076-1.013 4.26v11.885h18.497v-11.885c0-2.184-.328-3.604-.983-4.26-.654-.654-2.114-1.06-4.377-1.22v-1.132h16.948v1.133c-2.243.16-3.698.566-4.363 1.22-.665.656-.998 2.076-.998 4.26v27.135c0 2.224.332 3.648.997 4.274.665.625 2.12 1.037 4.364 1.236V366h-16.947v-1.102c2.402-.238 3.897-.675 4.482-1.31.586-.636.88-2.274.88-4.915v-11.855h-18.498v12.57c0 2.224.338 3.653 1.013 4.29.675.634 2.135 1.04 4.38 1.22V366h-16.95v-1.102zm55.58-4.84c2.522 3.068 5.62 4.602 9.293 4.602 3.594 0 6.667-1.495 9.218-4.483 2.553-2.988 3.83-7.77 3.83-14.342 0-6.652-1.292-11.457-3.873-14.416-2.582-2.96-5.64-4.44-9.174-4.44-3.654 0-6.746 1.535-9.278 4.603-2.532 3.068-3.798 7.82-3.798 14.252 0 6.414 1.26 11.155 3.783 14.223zm-4.557-29.89c3.753-3.594 8.37-5.39 13.85-5.39 5.5 0 10.127 1.806 13.88 5.42 4.07 3.912 6.106 9.124 6.106 15.637 0 6.613-2.106 11.875-6.316 15.787-3.772 3.494-8.33 5.242-13.67 5.242-5.72 0-10.466-1.936-14.238-5.808-3.833-3.952-5.75-9.025-5.75-15.22 0-6.514 2.046-11.736 6.137-15.668zm36.785 34.73c2.52-.258 4.14-.83 4.854-1.713.715-.883 1.073-2.934 1.073-6.15v-24.782c0-2.204-.348-3.638-1.043-4.304-.695-.666-2.273-1.058-4.736-1.177v-1.132h12.063l14.118 30.77 13.492-30.77h12.153v1.133c-2.264.16-3.724.57-4.38 1.236-.654.664-.982 2.08-.982 4.243v27.135c0 2.224.33 3.648.984 4.274.655.625 2.115 1.037 4.38 1.236V366h-17.098v-1.102c2.462-.2 3.996-.64 4.602-1.325.605-.686.908-2.32.908-4.9V331.27L215.72 366h-.835l-15.34-33.3v24.335c0 3.336.487 5.51 1.46 6.523.635.655 2.055 1.102 4.26 1.34V366h-14.327v-1.102zm80.777-14.565l-7.06-16.8-6.97 16.8h14.03zM245.385 366v-1.102c1.568-.18 2.745-.774 3.53-1.787.784-1.012 2.13-3.762 4.035-8.25l12.718-29.934h1.192l15.19 34.58c1.013 2.304 1.822 3.73 2.428 4.275.605.547 1.623.92 3.053 1.118V366h-15.517v-1.102c1.787-.16 2.938-.353 3.455-.58.516-.23.774-.79.774-1.684 0-.298-.1-.824-.298-1.578-.198-.755-.476-1.55-.834-2.383l-2.53-5.868h-15.966c-1.59 3.99-2.537 6.43-2.845 7.312-.308.884-.462 1.584-.462 2.1 0 1.033.417 1.748 1.25 2.145.517.238 1.49.417 2.92.536V366h-12.093zm47.09-12.27c1.033 2.74 2.244 4.923 3.634 6.55 2.42 2.84 5.43 4.26 9.024 4.26 1.946 0 3.63-.615 5.048-1.846 1.42-1.23 2.13-2.95 2.13-5.153 0-1.985-.715-3.712-2.145-5.182-.933-.933-2.9-2.333-5.897-4.2l-5.212-3.246c-1.57-.993-2.82-1.995-3.753-3.008-1.728-1.926-2.592-4.05-2.592-6.374 0-3.078 1.023-5.64 3.068-7.685 2.047-2.045 4.757-3.068 8.133-3.068 1.39 0 3.062.343 5.018 1.028 1.957.685 3.074 1.028 3.352 1.028.755 0 1.276-.18 1.564-.537.288-.357.51-.863.67-1.52h1.25l1.34 12.988h-1.458c-.993-3.912-2.586-6.642-4.78-8.19-2.195-1.55-4.364-2.324-6.51-2.324-1.667 0-3.12.49-4.362 1.474-1.24.983-1.862 2.348-1.862 4.095 0 1.568.477 2.908 1.43 4.02.953 1.132 2.432 2.314 4.438 3.545l5.36 3.306c3.357 2.066 5.72 3.962 7.09 5.69 1.35 1.747 2.026 3.812 2.026 6.195 0 3.197-1.207 5.868-3.62 8.012-2.412 2.145-5.495 3.217-9.248 3.217-1.886 0-3.857-.357-5.912-1.072-2.055-.715-3.232-1.072-3.53-1.072-.714 0-1.196.218-1.444.655-.248.437-.412.903-.492 1.4h-1.34l-1.817-12.986h1.4zm156.637 11.023c2.695-.292 4.38-.79 5.054-1.5.673-.706 1.01-2.554 1.01-5.54v-29.885c0-2.47-.376-4.077-1.128-4.818-.753-.74-2.398-1.202-4.936-1.382v-1.28h19.17v1.28c-2.538.18-4.19.64-4.952 1.382-.764.74-1.146 2.347-1.146 4.818v13.443h20.922V327.83c0-2.47-.37-4.077-1.11-4.818-.743-.74-2.393-1.202-4.954-1.382v-1.28h19.17v1.28c-2.538.18-4.183.64-4.935 1.382-.753.74-1.13 2.347-1.13 4.818v30.693c0 2.516.377 4.128 1.13 4.835.752.708 2.397 1.174 4.935 1.398V366h-19.17v-1.247c2.718-.27 4.408-.763 5.07-1.482.663-.718.994-2.57.994-5.558v-13.41h-20.922v14.22c0 2.514.382 4.13 1.146 4.85.763.72 2.414 1.18 4.952 1.38V366h-19.17v-1.247zm75.495-14.163l-6.943-16.524-6.856 16.524h13.8zm-25.9 15.41v-1.084c1.544-.176 2.702-.762 3.473-1.758.772-.996 2.095-3.7 3.97-8.115l12.51-29.443h1.172l14.94 34.013c.997 2.266 1.793 3.667 2.39 4.204.594.537 1.595.904 3.002 1.1V366H524.9v-1.084c1.758-.156 2.89-.347 3.398-.57.508-.226.762-.778.762-1.657 0-.294-.098-.81-.293-1.553-.195-.742-.47-1.524-.82-2.344l-2.49-5.772h-15.704c-1.562 3.927-2.495 6.325-2.797 7.194-.303.87-.455 1.557-.455 2.065 0 1.015.412 1.718 1.232 2.11.508.233 1.465.41 2.87.526V366H498.71zm63.634-21.885c3.185-1.308 4.777-3.77 4.777-7.383 0-3.476-1.426-5.85-4.278-7.12-1.524-.682-3.546-1.024-6.065-1.024-1.7 0-2.74.122-3.12.366-.38.244-.572.816-.572 1.714v14.795c4.317-.156 7.403-.606 9.258-1.348zm-20.507 20.8c2.305-.214 3.74-.663 4.307-1.347.567-.683.85-2.275.85-4.775v-25.986c0-2.11-.318-3.492-.952-4.146-.635-.653-2.037-1.068-4.205-1.244v-1.113h16.612c3.457 0 6.338.44 8.642 1.318 4.375 1.66 6.563 4.718 6.563 9.17 0 2.99-.972 5.284-2.915 6.886-1.944 1.6-4.585 2.656-7.925 3.164l12.363 15.205c.762.937 1.524 1.62 2.285 2.05.762.43 1.74.704 2.93.82V366h-9.668l-14.297-18.457-3.34.146v11.806c0 2.227.337 3.638 1.01 4.233.675.595 2.145.99 4.41 1.186V366h-16.67v-1.084zm56.28-38.612v1.113c-1.504.02-2.53.117-3.076.293-.957.31-1.436.946-1.436 1.903 0 .49.172 1.172.514 2.05.342.88.98 2.355 1.92 4.425l9.374 20.89 8.525-22.62c.37-.995.654-1.835.85-2.518.195-.684.293-1.24.293-1.67 0-1.152-.498-1.934-1.494-2.344-.586-.234-1.553-.37-2.9-.41v-1.113h12.275v1.025c-1.27.176-2.207.518-2.813 1.026-.918.76-1.826 2.294-2.725 4.6l-13.272 33.75h-.908l-14.795-32.99c-1.25-2.792-2.25-4.53-3.003-5.214-.752-.684-1.85-1.074-3.296-1.172v-1.025h15.967zm27.363 38.613c2.44-.176 4.024-.542 4.746-1.1.723-.555 1.084-1.996 1.084-4.32v-26.69c0-2.206-.36-3.627-1.084-4.262-.722-.635-2.305-1.01-4.746-1.128v-1.113h17.754v1.113c-2.44.117-4.023.493-4.746 1.128-.723.635-1.084 2.056-1.084 4.263v26.69c0 2.323.36 3.764 1.084 4.32.723.557 2.305.923 4.746 1.1V366h-17.754v-1.084zm19.688 0c2.48-.254 4.072-.815 4.775-1.685.702-.868 1.054-2.884 1.054-6.048v-26.455l-.82-.967c-.88-1.035-1.627-1.675-2.242-1.92-.615-.243-1.538-.385-2.768-.424v-1.113h10.283l23.115 28.886v-20.07c0-3.3-.488-5.448-1.465-6.444-.644-.645-2.07-1.065-4.277-1.26v-1.113h14.092v1.113c-2.286.234-3.81.79-4.57 1.67-.762.88-1.143 2.89-1.143 6.035v31.583h-1.027l-26.543-32.9v23.38c0 3.28.48 5.42 1.436 6.415.625.644 2.02 1.084 4.19 1.318V366h-14.092v-1.084zm55.708-1.61c.478.31 1.47.467 2.973.467 4.688 0 8.545-.927 11.572-2.783 4.65-2.85 6.973-7.724 6.973-14.62 0-6.15-1.914-10.78-5.742-13.886-3.28-2.656-7.627-3.984-13.037-3.984-1.347 0-2.26.146-2.738.44-.48.292-.718.937-.718 1.933v30.498c0 .978.24 1.622.718 1.935zm-12.085 1.61c2.187-.234 3.613-.63 4.277-1.187.664-.557.996-1.968.996-4.234v-26.69c0-2.187-.322-3.593-.967-4.218-.644-.625-2.08-1.016-4.306-1.172v-1.113h16.17c5.45 0 10.06.898 13.83 2.695 6.797 3.223 10.195 8.984 10.195 17.285 0 2.988-.61 5.83-1.83 8.526-1.222 2.694-3.063 4.97-5.524 6.825-1.562 1.172-3.183 2.06-4.863 2.666-3.066 1.134-6.836 1.7-11.308 1.7h-16.67v-1.084zm43.037 0c2.207-.234 3.637-.63 4.292-1.187.654-.557.98-1.968.98-4.234v-26.69c0-2.128-.32-3.52-.966-4.174-.644-.654-2.08-1.06-4.306-1.216v-1.113H763.7l.204 8.613h-1.524c-.507-2.656-1.27-4.375-2.285-5.156-1.015-.78-3.28-1.172-6.797-1.172h-8.144c-.88 0-1.42.14-1.626.425-.205.283-.308.815-.308 1.596v13.388h9.23c2.557 0 4.188-.38 4.89-1.143.704-.76 1.27-2.304 1.7-4.628h1.407v13.886h-1.406c-.45-2.324-1.025-3.862-1.728-4.614-.703-.753-2.324-1.13-4.863-1.13h-9.23v14.855c0 1.19.376 1.894 1.128 2.11.752.214 3.003.32 6.753.32 4.064 0 7.062-.443 8.995-1.332 1.934-.888 3.672-3.042 5.215-6.46h1.67L764.255 366h-32.43v-1.084zm57.158-20.8c3.184-1.31 4.775-3.77 4.775-7.384 0-3.476-1.425-5.85-4.277-7.12-1.523-.682-3.545-1.024-6.064-1.024-1.7 0-2.74.122-3.12.366-.38.244-.572.816-.572 1.714v14.795c4.317-.156 7.402-.606 9.258-1.348zm-20.508 20.8c2.305-.215 3.74-.664 4.307-1.348.567-.683.85-2.275.85-4.775v-25.986c0-2.11-.317-3.492-.952-4.146-.635-.653-2.036-1.068-4.204-1.244v-1.113h16.61c3.458 0 6.34.44 8.644 1.318 4.375 1.66 6.563 4.718 6.563 9.17 0 2.99-.97 5.284-2.915 6.886-1.943 1.6-4.584 2.656-7.924 3.164l12.364 15.205c.762.937 1.523 1.62 2.285 2.05.76.43 1.737.704 2.93.82V366h-9.67l-14.296-18.457-3.34.146v11.806c0 2.227.337 3.638 1.01 4.233.675.595 2.144.99 4.41 1.186V366h-16.67v-1.084zm-383.85-34.54c2.432-2.322 3.648-4.89 3.648-7.7 0-2.106-.615-3.808-1.844-5.105-1.23-1.296-2.79-1.945-4.68-1.945-2.054 0-3.642.662-4.763 1.986-1.12 1.325-1.682 3.08-1.682 5.27 0 1.702.304 3.546.912 5.532.608 1.986 1.398 4.032 2.37 6.14 2.676-1.486 4.69-2.878 6.04-4.175zm-5.31 34.085c2.163-.864 4.23-2.228 6.202-4.092-2.54-3.243-4.52-5.97-5.937-8.187-1.42-2.214-3.642-6.078-6.668-11.59-2.783 1.648-4.917 3.297-6.403 4.945-2.27 2.54-3.406 5.484-3.406 8.835 0 3.08 1 5.748 3 8.004 2 2.256 4.566 3.384 7.7 3.384 1.513 0 3.35-.432 5.51-1.297zm-7.658-26.747c-.35-.73-.757-1.73-1.216-3-.46-1.27-.784-2.296-.973-3.08-.216-.864-.39-1.735-.527-2.613-.135-.878-.202-1.736-.202-2.574 0-3.89 1.19-7.12 3.566-9.686 2.378-2.566 5.39-3.85 9.038-3.85 3.323 0 6.052.905 8.186 2.715 2.135 1.81 3.202 4.242 3.202 7.295 0 3.567-1.364 6.485-4.093 8.754-2.73 2.27-5.66 4.094-8.795 5.472 2.378 4.322 4.127 7.375 5.25 9.16 1.12 1.782 3.018 4.416 5.693 7.902 2.864-3.513 4.85-6.512 5.957-8.998 1.108-2.485 1.662-4.47 1.662-5.957 0-1.513-.554-2.553-1.662-3.12-.702-.352-1.918-.595-3.647-.73v-1.743h17.872v1.743c-1.81.216-3.16.54-4.052.972-1.46.73-2.702 2.04-3.73 3.932l-2.106 3.85c-1.514 2.756-2.778 4.863-3.79 6.322-1.014 1.458-2.534 3.47-4.56 6.038 1.08 1.27 2.31 2.553 3.688 3.85 3 2.566 5.998 3.85 8.997 3.85 1.783 0 3.296-.433 4.54-1.297.756-.54 1.77-1.58 3.04-3.12l1.214.973c-.163.648-.73 1.668-1.703 3.06-.972 1.39-1.904 2.48-2.796 3.262-1.404 1.243-3.04 2.12-4.903 2.634-1.108.324-2.188.486-3.242.486-2.62 0-5.215-.824-7.78-2.472-1.54-.973-3.595-2.69-6.16-5.147-2.433 2.242-4.892 3.958-7.377 5.147-3.243 1.62-6.81 2.43-10.7 2.43-4.323 0-7.774-1.154-10.354-3.464-2.58-2.31-3.87-5.464-3.87-9.463 0-3.755 1.154-7.058 3.464-9.91 2.31-2.85 5.546-5.45 9.707-7.8l3.16-1.824zM441.602 270C306.902 270 38 276 38 276s269.488 6 404.48 6c129.342 0 388.52-6 388.52-6s-259.765-6-389.398-6zM441.602 407C306.902 407 38 413 38 413s269.488 6 404.48 6c129.342 0 388.52-6 388.52-6s-259.765-6-389.398-6zM391.09 213.564c-1.015.553-2.036 1.092-3.062 1.618-7.452 3.82-15.65 5.73-24.593 5.73-4.657 0-8.99-.607-12.995-1.818-4.005-1.21-7.452-3.074-10.34-5.59-2.888-2.514-5.077-5.635-6.567-9.36-1.49-3.727-2.05-8.106-1.677-13.136-4.1-.186-8.29-.838-12.576-1.956-4.285-1.118-8.15-2.795-11.597-5.03-3.447-2.236-6.242-5.077-8.384-8.524-2.144-3.447-3.215-7.685-3.215-12.716 0-6.334 1.816-12.063 5.45-17.186 3.633-5.124 8.197-9.456 13.693-12.995 5.496-3.54 11.41-6.24 17.746-8.104 6.335-1.863 12.203-2.795 17.606-2.795 5.03 0 10.06.56 15.09 1.678 2.61-7.638 7.08-14.16 13.415-19.562 6.335-5.403 13.694-8.104 22.078-8.104 4.285 0 8.104.605 11.458 1.816 3.354 1.21 6.522 2.795 9.502 4.75 2.98 1.957 5.776 4.24 8.384 6.848 2.61 2.608 5.31 5.31 8.105 8.104 6.335-5.03 12.856-9.176 19.563-12.436 6.707-3.26 14.253-4.89 22.637-4.89 7.824 0 14.718 1.676 20.68 5.03 5.962 3.353 10.526 8.663 13.693 15.93 2.98-.932 5.916-1.538 8.803-1.817 2.888-.28 5.73-.42 8.524-.42 5.403 0 10.806.746 16.21 2.236 5.402 1.49 10.2 3.726 14.39 6.707 4.193 2.98 7.593 6.754 10.202 11.318 2.608 4.565 3.912 9.828 3.912 15.79 0 8.943-2.795 16.488-8.384 22.636-5.59 6.15-12.482 10.34-20.68 12.576-1.304 4.844-3.26 9.502-5.87 13.973-2.607 4.472-5.774 8.43-9.5 11.878-3.727 3.447-7.872 6.195-12.437 8.245-4.564 2.05-9.548 3.074-14.95 3.074-1.512 0-2.984-.065-4.417-.193 5.13 1.845 11.87 2.767 20.217 2.767 8.31 0 16.825-.907 25.544-2.72 8.72-1.815 17.497-4.097 26.333-6.848 8.836-2.75 17.643-5.734 26.42-8.953 8.78-3.218 17.352-6.203 25.72-8.953 8.368-2.75 16.473-5.033 24.315-6.847 7.84-1.814 15.214-2.72 22.12-2.72 3.043 0 6.203.38 9.48 1.14 3.277.76 6.29 1.93 9.04 3.51 2.75 1.58 5.033 3.63 6.847 6.146 1.814 2.515 2.72 5.587 2.72 9.215 0 3.63-1.08 6.876-3.246 9.744-2.165 2.866-4.857 5.412-8.076 7.635-3.218 2.224-6.7 4.214-10.445 5.97-3.746 1.755-7.198 3.335-10.358 4.74-.936 0-1.463-.09-1.58-.264-.117-.175 0-.35.35-.526.352-.175.79-.38 1.318-.614.526-.234.907-.41 1.14-.527 2.107-1.053 4.8-2.37 8.076-3.95 3.278-1.58 6.41-3.394 9.393-5.442 2.985-2.047 5.56-4.36 7.725-6.934s3.248-5.325 3.248-8.25c0-3.746-1.64-6.438-4.916-8.076-3.277-1.64-8.778-2.458-16.502-2.458-7.96 0-16.473.702-25.543 2.107-9.07 1.403-18.287 3.13-27.65 5.178s-18.726 4.27-28.09 6.67c-9.362 2.4-18.433 4.624-27.21 6.672-8.778 2.048-17.06 3.774-24.842 5.18-7.783 1.403-14.775 2.105-20.978 2.105-12.442 0-21.526-1.942-27.254-5.827-.592-.152-1.176-.317-1.753-.496-3.913-1.21-7.592-2.794-11.04-4.75-3.446-1.957-6.706-4.286-9.78-6.987-3.074-2.702-6.195-5.543-9.362-8.524v.28c-3.167 2.61-5.962 5.31-8.384 8.105-2.048 2.422-3.958 4.984-5.728 7.685-1.77 2.702-2.655 5.17-2.655 7.406 0 .932.14 2.096.42 3.493.28 1.397.698 2.794 1.257 4.19.56 1.4 1.164 2.656 1.817 3.774.653 1.118 1.35 1.956 2.097 2.515.93.372 1.164.884.698 1.536-.466.652-.978.7-1.537.14-1.118-.56-2.515-1.164-4.192-1.817s-3.4-1.305-5.17-1.957c-1.77-.652-3.307-1.304-4.61-1.956-1.305-.652-2.05-1.444-2.237-2.375-.187-.56-.234-1.21-.14-1.957.093-.745.046-1.397-.14-1.956-.56-4.472-1.49-8.245-2.795-11.32-1.304-3.073-2.934-5.728-4.89-7.964-1.957-2.236-4.332-4.192-7.127-5.87-2.794-1.675-5.96-3.445-9.5-5.308-5.22 3.95-10.598 7.497-16.136 10.645-2.183 10.667-13.58 16-34.197 16-6.203 0-13.196-.702-20.98-2.107-7.782-1.404-16.062-3.13-24.84-5.18-8.778-2.047-17.848-4.27-27.21-6.67-9.364-2.4-18.727-4.623-28.09-6.67-9.363-2.05-18.58-3.775-27.65-5.18-9.07-1.404-17.584-2.106-25.543-2.106-7.725 0-13.225.82-16.502 2.457-3.277 1.64-4.916 4.33-4.916 8.076 0 2.926 1.083 5.676 3.248 8.25 2.165 2.576 4.74 4.887 7.724 6.936 2.985 2.047 6.116 3.86 9.393 5.44 3.276 1.58 5.967 2.897 8.074 3.95.234.118.615.293 1.14.527.528.235.967.44 1.318.615.35.175.468.35.35.527-.116.174-.643.262-1.58.262-3.16-1.405-6.612-2.985-10.357-4.74-3.745-1.756-7.227-3.745-10.445-5.97-3.22-2.223-5.91-4.768-8.076-7.636-2.165-2.867-3.248-6.115-3.248-9.743s.907-6.7 2.722-9.217c1.814-2.516 4.096-4.564 6.846-6.144s5.764-2.75 9.04-3.51c3.278-.762 6.438-1.142 9.48-1.142 6.906 0 14.28.907 22.12 2.72 7.843 1.815 15.948 4.097 24.316 6.847 8.368 2.75 16.94 5.735 25.72 8.954 8.776 3.22 17.583 6.204 26.42 8.954 8.836 2.75 17.614 5.033 26.333 6.847 8.72 1.815 17.234 2.722 25.543 2.722 17.942 0 28.45-4.26 31.524-12.778zM374.614 174.8c-4.472-6.522-7.732-13.834-9.78-21.938-2.05-8.105-2.237-16.07-.56-23.894-6.707-2.05-13.228-3.075-19.563-3.075-4.656 0-9.407.652-14.25 1.957-4.845 1.304-9.223 3.26-13.136 5.868-3.912 2.61-7.126 5.87-9.64 9.782-2.517 3.912-3.774 8.57-3.774 13.973 0 8.197 2.748 14.997 8.244 20.4 5.496 5.403 12.157 8.664 19.982 9.782.372-2.05.885-4.1 1.537-6.15.652-2.048 1.444-4.284 2.375-6.706.373-1.12.978-1.49 1.817-1.12.838.374.79 1.026-.14 1.958-.932 1.118-1.444 3.074-1.537 5.868-.093 2.795-.047 4.938.14 6.428 7.08.373 13.88-.7 20.4-3.214 6.52-2.515 12.483-5.822 17.886-9.92zm85.515 27.946c-3.913-3.727-7.872-7.546-11.878-11.458-4.005-3.913-8.058-7.825-12.156-11.738-3.727 3.167-7.5 6.38-11.32 9.642-3.818 3.26-7.684 6.474-11.596 9.64 2.98 2.05 5.73 4.007 8.244 5.87 2.515 1.863 4.75 3.96 6.707 6.288 1.957 2.33 3.54 4.937 4.752 7.825 1.21 2.887 1.91 6.38 2.096 10.48.372-1.677 1.024-3.308 1.956-4.89.93-1.585 2.375-3.355 4.332-5.31 1.956-1.957 4.47-4.24 7.545-6.848 3.075-2.608 6.848-5.775 11.32-9.5zm-25.99-24.873c-4.845-4.657-9.642-9.222-14.393-13.693-4.75-4.472-9.735-8.757-14.95-12.856-4.286 3.913-8.106 7.453-11.46 10.62-3.353 3.167-6.706 6.148-10.06 8.943 3.726 5.03 8.01 9.734 12.855 14.113 4.844 4.378 9.782 8.43 14.812 12.156 3.726-2.98 7.545-6.1 11.458-9.362 3.912-3.26 7.825-6.567 11.737-9.92zm-31.3-28.225c-5.217-4.1-10.667-7.78-16.35-11.04-5.68-3.26-11.69-6.007-18.024-8.243 0 7.08 1.21 13.833 3.633 20.26 2.42 6.428 5.68 12.53 9.78 18.306 3.726-3.167 7.266-6.38 10.62-9.64 3.353-3.26 6.8-6.475 10.34-9.642zm29.902-27.388c-5.776-4.844-11.69-9.13-17.746-12.855-6.055-3.726-13.088-5.59-21.1-5.59-6.706 0-12.25 1.724-16.627 5.17-4.38 3.448-7.128 8.43-8.245 14.952 7.266 1.863 14.112 4.61 20.54 8.244 6.428 3.634 12.622 7.78 18.584 12.437 4.098-3.726 8.15-7.452 12.156-11.178 4.006-3.727 8.15-7.453 12.436-11.18zm32.697 28.785c-5.03-4.285-10.155-8.803-15.37-13.554-5.218-4.75-10.34-9.268-15.372-13.553-4.285 3.54-8.43 7.22-12.436 11.04-4.005 3.818-8.058 7.59-12.156 11.317 5.216 4.285 10.293 8.663 15.23 13.135 4.937 4.47 9.828 8.942 14.672 13.413 4.285-3.726 8.524-7.406 12.716-11.04 4.192-3.632 8.43-7.218 12.715-10.758zm28.225 22.916c-4.658-3.353-9.176-6.846-13.554-10.48-4.377-3.632-8.71-7.31-12.994-11.038-4.285 3.54-8.524 7.173-12.716 10.9-4.192 3.726-8.43 7.452-12.715 11.178 4.285 3.912 8.523 7.778 12.715 11.598 4.192 3.82 8.43 7.498 12.716 11.038 4.658-3.726 9.176-7.452 13.554-11.178 4.378-3.726 8.71-7.732 12.995-12.017zm51.98 16.49c-2.98.558-5.962.838-8.943.838-7.266 0-14.392-1.63-21.38-4.89-6.985-3.26-13.46-6.94-19.422-11.04-4.285 4.1-8.663 8.058-13.134 11.877-4.472 3.82-8.943 7.686-13.414 11.598 5.775 4.844 12.063 9.176 18.863 12.995 6.8 3.82 14.113 5.73 21.938 5.73 8.757 0 16.21-2.47 22.357-7.407 6.148-4.936 10.526-11.503 13.135-19.7zm-33.815-47.79c0-5.402-1.49-10.898-4.472-16.487-5.96 2.608-12.016 5.915-18.165 9.92-6.148 4.006-12.016 8.245-17.606 12.716 4.285 3.726 8.524 7.358 12.716 10.898s8.71 6.894 13.554 10.06c3.912-4.284 7.22-8.383 9.92-12.295 2.702-3.913 4.053-8.85 4.053-14.812zm-5.59-18.443c-3.726-5.962-8.383-10.62-13.973-13.973-5.59-3.354-11.923-5.03-19.003-5.03-6.52 0-12.343 1.397-17.466 4.19-5.124 2.796-10.2 6.056-15.23 9.782 4.843 4.844 9.734 9.642 14.67 14.393 4.938 4.75 9.828 9.267 14.672 13.553 6.335-4.844 12.483-9.223 18.445-13.135 5.962-3.913 11.924-7.173 17.886-9.78zm65.954 26.55c0-5.218-1.258-9.69-3.773-13.416-2.514-3.725-5.68-6.8-9.5-9.22-3.82-2.423-8.105-4.24-12.856-5.45-4.75-1.21-9.362-1.817-13.833-1.817-5.216 0-10.62.745-16.208 2.236.56 1.862 1.024 3.678 1.397 5.448.372 1.77.558 3.587.558 5.45 0 7.638-1.723 14.392-5.17 20.26-3.447 5.87-7.685 11.505-12.716 16.908 5.403 3.168 10.9 5.683 16.49 7.546 5.588 1.863 11.55 2.794 17.884 2.794 3.54 0 7.453-.465 11.738-1.397-.56-2.982-1.863-5.497-3.913-7.546-.558-.56-1.35-1.165-2.374-1.817-1.025-.652-2.05-1.257-3.074-1.816-1.025-.558-1.91-1.07-2.655-1.536-.745-.466-1.118-.792-1.118-.98 0-.744.65-1.815 1.955-3.212 1.304-1.398 2.236-2.096 2.795-2.096.93 0 1.956.42 3.074 1.257 1.118.84 2.142 1.863 3.074 3.074.932 1.21 1.77 2.422 2.515 3.633.745 1.21 1.21 2.19 1.397 2.935.932 2.794 1.398 5.216 1.398 7.266 6.707-2.05 12.203-5.45 16.488-10.2 4.285-4.75 6.428-10.852 6.428-18.304zM406.752 200.23c-5.962-3.167-11.504-6.474-16.628-9.92-5.123-3.447-9.828-7.965-14.113-13.554-5.588 4.285-11.736 7.685-18.443 10.2-6.707 2.515-13.6 3.866-20.68 4.052 1.863 7.825 6.1 13.74 12.715 17.746 6.614 4.006 13.74 6.008 21.38 6.008 6.892 0 13.227-1.443 19.002-4.33 5.776-2.89 11.365-6.29 16.768-10.202zM449.8 48.96c0 .533-.213 1.253-.64 2.16-.427.907-.987 1.787-1.68 2.64-.693.853-1.467 1.573-2.32 2.16-.853.587-1.707.88-2.56.88-.747 0-1.413-.213-2-.64-.587-.427-.88-1.067-.88-1.92 0-2.133.72-4 2.16-5.6 1.44-1.6 3.067-2.4 4.88-2.4.533 0 1.173.187 1.92.56.747.373 1.12 1.093 1.12 2.16zM391.09 481.928c-1.015-.553-2.036-1.092-3.062-1.618-7.452-3.82-15.65-5.73-24.593-5.73-4.657 0-8.99.607-12.995 1.818-4.005 1.21-7.452 3.074-10.34 5.59-2.888 2.514-5.077 5.635-6.567 9.36-1.49 3.727-2.05 8.106-1.677 13.136-4.1.186-8.29.838-12.576 1.956-4.285 1.118-8.15 2.795-11.597 5.03-3.447 2.236-6.242 5.077-8.384 8.524-2.144 3.447-3.215 7.685-3.215 12.716 0 6.334 1.816 12.063 5.45 17.186 3.633 5.124 8.197 9.456 13.693 12.995 5.496 3.54 11.41 6.243 17.746 8.106 6.335 1.863 12.203 2.795 17.606 2.795 5.03 0 10.06-.558 15.09-1.676 2.61 7.638 7.08 14.16 13.415 19.562 6.335 5.403 13.694 8.104 22.078 8.104 4.285 0 8.104-.605 11.458-1.816 3.354-1.21 6.522-2.795 9.502-4.75 2.98-1.957 5.776-4.24 8.384-6.848 2.61-2.608 5.31-5.31 8.105-8.104 6.335 5.03 12.856 9.176 19.563 12.436 6.707 3.26 14.253 4.89 22.637 4.89 7.824 0 14.718-1.676 20.68-5.03 5.962-3.353 10.526-8.663 13.693-15.93 2.98.932 5.916 1.538 8.803 1.817 2.888.28 5.73.42 8.524.42 5.403 0 10.806-.746 16.21-2.236 5.402-1.492 10.2-3.727 14.39-6.708 4.193-2.98 7.593-6.754 10.202-11.318 2.608-4.565 3.912-9.828 3.912-15.79 0-8.943-2.795-16.488-8.384-22.636-5.59-6.15-12.482-10.34-20.68-12.576-1.304-4.844-3.26-9.502-5.87-13.973-2.607-4.473-5.774-8.432-9.5-11.88-3.727-3.445-7.872-6.193-12.437-8.243-4.564-2.05-9.548-3.074-14.95-3.074-1.512 0-2.984.064-4.417.192 5.13-1.845 11.87-2.767 20.217-2.767 8.31 0 16.825.907 25.544 2.72 8.72 1.815 17.497 4.097 26.333 6.848 8.836 2.75 17.643 5.734 26.42 8.953 8.78 3.217 17.352 6.202 25.72 8.952 8.368 2.75 16.473 5.033 24.315 6.847 7.84 1.813 15.214 2.72 22.12 2.72 3.043 0 6.203-.38 9.48-1.14 3.277-.762 6.29-1.932 9.04-3.512 2.75-1.58 5.033-3.628 6.847-6.145 1.814-2.516 2.72-5.588 2.72-9.216 0-3.63-1.08-6.876-3.246-9.744-2.165-2.867-4.857-5.413-8.076-7.636-3.218-2.224-6.7-4.214-10.445-5.97-3.746-1.755-7.198-3.335-10.358-4.74-.936 0-1.463.09-1.58.264-.117.177 0 .352.35.528.352.175.79.38 1.318.614.526.234.907.41 1.14.527 2.107 1.052 4.8 2.37 8.076 3.95 3.278 1.58 6.41 3.393 9.393 5.44 2.985 2.05 5.56 4.36 7.725 6.936 2.165 2.574 3.248 5.325 3.248 8.25 0 3.746-1.64 6.438-4.916 8.076-3.277 1.64-8.778 2.458-16.502 2.458-7.96 0-16.473-.702-25.543-2.107-9.07-1.404-18.287-3.13-27.65-5.18-9.363-2.047-18.726-4.27-28.09-6.67-9.362-2.4-18.433-4.623-27.21-6.67-8.778-2.05-17.06-3.775-24.842-5.18-7.783-1.404-14.775-2.106-20.978-2.106-12.442 0-21.526 1.942-27.254 5.827-.592.152-1.176.317-1.753.496-3.913 1.21-7.592 2.794-11.04 4.75-3.446 1.957-6.706 4.286-9.78 6.987-3.074 2.702-6.195 5.543-9.362 8.524v-.28c-3.167-2.607-5.962-5.308-8.384-8.103-2.048-2.422-3.958-4.984-5.728-7.685-1.77-2.702-2.655-5.17-2.655-7.406 0-.932.14-2.096.42-3.493.28-1.398.698-2.795 1.257-4.192.56-1.397 1.164-2.654 1.817-3.772.653-1.118 1.35-1.956 2.097-2.515.93-.373 1.164-.885.698-1.537-.466-.652-.978-.7-1.537-.14-1.118.56-2.515 1.164-4.192 1.817-1.677.652-3.4 1.304-5.17 1.956-1.77.65-3.307 1.303-4.61 1.955-1.305.652-2.05 1.444-2.237 2.375-.187.56-.234 1.21-.14 1.957.093.745.046 1.397-.14 1.956-.56 4.47-1.49 8.244-2.795 11.318-1.304 3.075-2.934 5.73-4.89 7.966-1.957 2.236-4.332 4.192-7.127 5.87-2.794 1.675-5.96 3.445-9.5 5.308-5.22-3.95-10.598-7.497-16.136-10.645-2.183-10.668-13.58-16-34.197-16-6.203 0-13.196.7-20.98 2.106-7.782 1.404-16.062 3.13-24.84 5.18-8.778 2.047-17.848 4.27-27.21 6.67-9.364 2.4-18.727 4.623-28.09 6.67-9.363 2.05-18.58 3.775-27.65 5.18-9.07 1.404-17.584 2.106-25.543 2.106-7.725 0-13.225-.82-16.502-2.457-3.277-1.64-4.916-4.33-4.916-8.076 0-2.927 1.083-5.677 3.248-8.252 2.165-2.575 4.74-4.886 7.724-6.935 2.985-2.048 6.116-3.862 9.393-5.442 3.276-1.58 5.967-2.895 8.074-3.95.234-.116.615-.29 1.14-.525.528-.235.967-.44 1.318-.615.35-.175.468-.35.35-.527-.116-.175-.643-.263-1.58-.263-3.16 1.405-6.612 2.985-10.357 4.74-3.745 1.756-7.227 3.745-10.445 5.97-3.22 2.223-5.91 4.768-8.076 7.636-2.165 2.867-3.248 6.115-3.248 9.743 0 3.627.907 6.7 2.722 9.216 1.814 2.516 4.096 4.564 6.846 6.144s5.764 2.75 9.04 3.51c3.278.762 6.438 1.142 9.48 1.142 6.906 0 14.28-.907 22.12-2.72 7.843-1.815 15.948-4.097 24.316-6.847 8.368-2.75 16.94-5.735 25.72-8.954 8.776-3.217 17.583-6.202 26.42-8.952 8.836-2.75 17.614-5.033 26.333-6.847 8.72-1.813 17.234-2.72 25.543-2.72 17.942 0 28.45 4.26 31.524 12.778zm-16.476 38.765c-4.472 6.52-7.732 13.833-9.78 21.937-2.05 8.105-2.237 16.07-.56 23.894-6.707 2.05-13.228 3.075-19.563 3.075-4.656 0-9.407-.653-14.25-1.958-4.845-1.304-9.223-3.26-13.136-5.868-3.912-2.61-7.126-5.87-9.64-9.782-2.517-3.912-3.774-8.57-3.774-13.973 0-8.198 2.748-14.998 8.244-20.4 5.496-5.404 12.157-8.665 19.982-9.783.372 2.05.885 4.1 1.537 6.15.652 2.048 1.444 4.284 2.375 6.706.373 1.118.978 1.49 1.817 1.118.838-.372.79-1.024-.14-1.956-.932-1.118-1.444-3.074-1.537-5.868-.093-2.795-.047-4.938.14-6.428 7.08-.373 13.88.7 20.4 3.214 6.52 2.515 12.483 5.822 17.886 9.92zm85.515-27.947c-3.913 3.727-7.872 7.546-11.878 11.458-4.005 3.913-8.058 7.825-12.156 11.738-3.727-3.167-7.5-6.38-11.32-9.642-3.818-3.26-7.684-6.474-11.596-9.64 2.98-2.05 5.73-4.007 8.244-5.87 2.515-1.863 4.75-3.96 6.707-6.288 1.957-2.33 3.54-4.937 4.752-7.825 1.21-2.887 1.91-6.38 2.096-10.48.372 1.677 1.024 3.308 1.956 4.89.93 1.585 2.375 3.355 4.332 5.31 1.956 1.957 4.47 4.24 7.545 6.848 3.075 2.608 6.848 5.775 11.32 9.5zm-25.99 24.873c-4.845 4.656-9.642 9.22-14.393 13.692-4.75 4.472-9.735 8.757-14.95 12.856-4.286-3.913-8.106-7.453-11.46-10.62-3.353-3.167-6.706-6.148-10.06-8.943 3.726-5.03 8.01-9.734 12.855-14.113 4.844-4.378 9.782-8.43 14.812-12.156 3.726 2.98 7.545 6.1 11.458 9.362 3.912 3.26 7.825 6.567 11.737 9.92zm-31.3 28.224c-5.217 4.1-10.667 7.78-16.35 11.04-5.68 3.26-11.69 6.007-18.024 8.243 0-7.08 1.21-13.833 3.633-20.26 2.42-6.428 5.68-12.53 9.78-18.306 3.726 3.17 7.266 6.382 10.62 9.643 3.353 3.26 6.8 6.474 10.34 9.64zm29.902 27.388c-5.776 4.844-11.69 9.13-17.746 12.855-6.055 3.726-13.088 5.59-21.1 5.59-6.706 0-12.25-1.724-16.627-5.17-4.38-3.448-7.128-8.43-8.245-14.952 7.266-1.863 14.112-4.61 20.54-8.244 6.428-3.632 12.622-7.778 18.584-12.435 4.098 3.726 8.15 7.452 12.156 11.178 4.006 3.726 8.15 7.452 12.436 11.18zm32.697-28.785c-5.03 4.285-10.155 8.803-15.37 13.554-5.218 4.752-10.34 9.27-15.372 13.555-4.285-3.54-8.43-7.22-12.436-11.04-4.005-3.818-8.058-7.59-12.156-11.317 5.216-4.285 10.293-8.663 15.23-13.135 4.937-4.47 9.828-8.943 14.672-13.414 4.285 3.725 8.524 7.405 12.716 11.038s8.43 7.22 12.715 10.76zm28.225-22.916c-4.658 3.355-9.176 6.848-13.554 10.48-4.377 3.634-8.71 7.313-12.994 11.04-4.285-3.54-8.524-7.173-12.716-10.9-4.192-3.726-8.43-7.452-12.715-11.178 4.285-3.912 8.523-7.778 12.715-11.598 4.192-3.82 8.43-7.498 12.716-11.038 4.658 3.726 9.176 7.452 13.554 11.178 4.378 3.726 8.71 7.732 12.995 12.017zm51.98-16.487c-2.98-.56-5.962-.84-8.943-.84-7.266 0-14.392 1.632-21.38 4.892-6.985 3.26-13.46 6.94-19.422 11.04-4.285-4.1-8.663-8.06-13.134-11.878-4.472-3.82-8.943-7.686-13.414-11.598 5.775-4.845 12.063-9.177 18.863-12.996 6.8-3.82 14.113-5.73 21.938-5.73 8.757 0 16.21 2.47 22.357 7.407 6.148 4.938 10.526 11.505 13.135 19.703zM511.83 552.83c0 5.404-1.49 10.9-4.472 16.49-5.96-2.61-12.016-5.916-18.165-9.922-6.148-4.005-12.016-8.244-17.606-12.715 4.285-3.727 8.524-7.36 12.716-10.9s8.71-6.893 13.554-10.06c3.912 4.285 7.22 8.384 9.92 12.296 2.702 3.912 4.053 8.85 4.053 14.81zm-5.59 18.445c-3.726 5.962-8.383 10.62-13.973 13.973-5.59 3.354-11.923 5.03-19.003 5.03-6.52 0-12.343-1.397-17.466-4.19-5.124-2.796-10.2-6.056-15.23-9.782 4.843-4.844 9.734-9.642 14.67-14.393 4.938-4.75 9.828-9.268 14.672-13.554 6.335 4.843 12.483 9.222 18.445 13.134 5.962 3.913 11.924 7.173 17.886 9.78zm65.954-26.55c0 5.218-1.258 9.69-3.773 13.416-2.514 3.727-5.68 6.8-9.5 9.223-3.82 2.422-8.105 4.238-12.856 5.45-4.75 1.21-9.362 1.816-13.833 1.816-5.216 0-10.62-.746-16.208-2.237.56-1.863 1.024-3.68 1.397-5.45.372-1.77.558-3.586.558-5.45 0-7.637-1.723-14.39-5.17-20.26-3.447-5.87-7.685-11.504-12.716-16.907 5.403-3.168 10.9-5.683 16.49-7.546 5.588-1.863 11.55-2.794 17.884-2.794 3.54 0 7.453.465 11.738 1.397-.56 2.98-1.863 5.496-3.913 7.545-.558.56-1.35 1.165-2.374 1.817-1.025.652-2.05 1.257-3.074 1.816-1.025.56-1.91 1.073-2.655 1.538-.745.466-1.118.792-1.118.98 0 .744.65 1.815 1.955 3.212 1.304 1.398 2.236 2.096 2.795 2.096.93 0 1.956-.42 3.074-1.257 1.118-.84 2.142-1.864 3.074-3.075.932-1.21 1.77-2.422 2.515-3.633.745-1.21 1.21-2.19 1.397-2.935.932-2.794 1.398-5.216 1.398-7.266 6.707 2.05 12.203 5.45 16.488 10.202 4.285 4.75 6.428 10.852 6.428 18.304zm-165.442-49.463c-5.962 3.167-11.504 6.474-16.628 9.92-5.123 3.447-9.828 7.965-14.113 13.554-5.588-4.285-11.736-7.685-18.443-10.2-6.707-2.515-13.6-3.866-20.68-4.052 1.863-7.825 6.1-13.74 12.715-17.746 6.614-4.006 13.74-6.008 21.38-6.008 6.892 0 13.227 1.443 19.002 4.33 5.776 2.89 11.365 6.29 16.768 10.202zm43.048 151.27c0-.533-.213-1.253-.64-2.16-.427-.907-.987-1.787-1.68-2.64-.693-.853-1.467-1.573-2.32-2.16-.853-.587-1.707-.88-2.56-.88-.747 0-1.413.213-2 .64-.587.427-.88 1.067-.88 1.92 0 2.133.72 4 2.16 5.6 1.44 1.6 3.067 2.4 4.88 2.4.533 0 1.173-.187 1.92-.56.747-.373 1.12-1.093 1.12-2.16z"/></g></symbol><symbol id="gift-flat" viewBox="0 0 600 600"><title>gift</title><g fill="currentColor" fill-rule="evenodd"><path d="M271.628 139.8c14.54-25.71 39.896-50.664 41.434-80.207.763-14.74-13.67-31.562-32.572-19.435-12.695 8.154-18.79 24.212-20.84 38.67-7.2-13.084-20.024-26.236-35.13-30.03-21.807-5.468-26.502 12.697-21.07 26.438 10.872 27.507 46.2 44.82 68.178 64.564zM321.077 168.2c4.45-1.127 8.995-1.747 13.613-1.747 25.37 0 49.296 17.954 57.404 40.818 26.288-8.763 53.688-18.214 71.278-35.107 30.962-29.717 10.445-62.073-14.182-61.5-19.266.493-34.985 13.988-46.594 19.656-12.05-46.037-64.682-73.483-85.312-14.74-6.073 17.302-2.542 35.17 3.793 52.62z" id="Shape"/><path d="M529.242 276.363c-1.24-19.794-38.547-60.592-60.684-83.153l-2.322-2.368-20.414 20.03 2.317 2.373c17.568 17.902 35.2 38.322 45.015 52.047l-142.88 92.75c-4.797-4.737-9.005-8.925-12.644-12.58 19.14-36.824 45.28-88.713 42.68-126.098-1.896-27.354-40.7-55.297-72.185-29.01-21.153 17.637-24.31 29.497-24.786 56.605-15.94-22.65-23.522-34.095-51.69-37.995-40.62-5.607-58.937 37.59-46.052 61.812 10.717 20.122 42.72 49.587 67.537 67.885l-20.988 15.38-114.43-121.69c.708-.62 1.344-1.174 1.872-1.63 4.053-3.46 8.133-6.9 12.213-10.328l102.086-85.68L215.4 112.88l-102.004 85.614c-4.142 3.48-8.278 6.97-12.373 10.466-3.07 2.62-12.906 11.506-15.043 13.874-6.073 6.71-7.642 17.77-8.436 28.717l-.087 1.052c-.288 3.173-1.37 16.786-1.636 20.46L63 466.693c0 23.342 17.63 34.202 27.226 36.74l2.09.363c241.902 22.48 380.204 33.674 381.557 33.786.83.058 1.645.078 2.445.078 23.91-.01 33.57-19.963 35.36-30.782l.164-2.08c0-67.056 15.53-209.69 17.328-225.937l.118-1.533-.046-.964zm-320.34 94.71l-116.58 85.41 12.04-181.406c.17-2.332.69-8.908 1.1-13.998l103.44 109.994zm162.285 7.5l127.385-82.698c-4.55 43.135-13.382 132.62-15.053 191.35-24.895-23.935-75.056-72.247-112.333-108.652zm-98.268-18.938c5.53-3.983 11.69-6.007 18.312-6.007 9.338 0 17.113 4.023 19.763 5.57 25.145 25.87 116.186 113.558 152.92 148.877-38.312-3.168-159.02-13.32-351.153-31.106l141.285-103.502c11.21-8.216 16.38-12.014 18.662-14.125l.21.292z"/></g></symbol><symbol id="gift" viewBox="0 0 600 600"><title>gift</title><g fill="#961C00" fill-rule="evenodd"><path d="M271.628 139.8c14.54-25.71 39.896-50.664 41.434-80.207.763-14.74-13.67-31.562-32.572-19.435-12.695 8.154-18.79 24.212-20.84 38.67-7.2-13.084-20.024-26.236-35.13-30.03-21.807-5.468-26.502 12.697-21.07 26.438 10.872 27.507 46.2 44.82 68.178 64.564zM321.077 168.2c4.45-1.127 8.995-1.747 13.613-1.747 25.37 0 49.296 17.954 57.404 40.818 26.288-8.763 53.688-18.214 71.278-35.107 30.962-29.717 10.445-62.073-14.182-61.5-19.266.493-34.985 13.988-46.594 19.656-12.05-46.037-64.682-73.483-85.312-14.74-6.073 17.302-2.542 35.17 3.793 52.62z" id="Shape"/><path d="M529.242 276.363c-1.24-19.794-38.547-60.592-60.684-83.153l-2.322-2.368-20.414 20.03 2.317 2.373c17.568 17.902 35.2 38.322 45.015 52.047l-142.88 92.75c-4.797-4.737-9.005-8.925-12.644-12.58 19.14-36.824 45.28-88.713 42.68-126.098-1.896-27.354-40.7-55.297-72.185-29.01-21.153 17.637-24.31 29.497-24.786 56.605-15.94-22.65-23.522-34.095-51.69-37.995-40.62-5.607-58.937 37.59-46.052 61.812 10.717 20.122 42.72 49.587 67.537 67.885l-20.988 15.38-114.43-121.69c.708-.62 1.344-1.174 1.872-1.63 4.053-3.46 8.133-6.9 12.213-10.328l102.086-85.68L215.4 112.88l-102.004 85.614c-4.142 3.48-8.278 6.97-12.373 10.466-3.07 2.62-12.906 11.506-15.043 13.874-6.073 6.71-7.642 17.77-8.436 28.717l-.087 1.052c-.288 3.173-1.37 16.786-1.636 20.46L63 466.693c0 23.342 17.63 34.202 27.226 36.74l2.09.363c241.902 22.48 380.204 33.674 381.557 33.786.83.058 1.645.078 2.445.078 23.91-.01 33.57-19.963 35.36-30.782l.164-2.08c0-67.056 15.53-209.69 17.328-225.937l.118-1.533-.046-.964zm-320.34 94.71l-116.58 85.41 12.04-181.406c.17-2.332.69-8.908 1.1-13.998l103.44 109.994zm162.285 7.5l127.385-82.698c-4.55 43.135-13.382 132.62-15.053 191.35-24.895-23.935-75.056-72.247-112.333-108.652zm-98.268-18.938c5.53-3.983 11.69-6.007 18.312-6.007 9.338 0 17.113 4.023 19.763 5.57 25.145 25.87 116.186 113.558 152.92 148.877-38.312-3.168-159.02-13.32-351.153-31.106l141.285-103.502c11.21-8.216 16.38-12.014 18.662-14.125l.21.292z"/></g></symbol></svg>